<?xml version="1.0" encoding="UTF-8"?>
<svg version="1.1" xmlns="http://www.w3.org/2000/svg" width="1024" height="1024">
<path d="M0 0 C337.92 0 675.84 0 1024 0 C1024 337.92 1024 675.84 1024 1024 C686.08 1024 348.16 1024 0 1024 C0 686.08 0 348.16 0 0 Z " fill="#1E1F1E" transform="translate(0,0)"/>
<path d="M0 0 C-0.5092807 5.02783382 -1.0243756 10.05503134 -1.54418945 15.08178711 C-1.71917605 16.78117923 -1.89274622 18.48071797 -2.06469727 20.18041992 C-3.10473676 30.44966617 -4.33670351 40.66356136 -5.83798218 50.87573242 C-7.40644005 61.62156321 -8.66283125 72.40361347 -9.9375 83.1875 C-10.19860327 85.37990766 -10.45991766 87.57229019 -10.72143555 89.76464844 C-11.90597038 99.70769956 -13.0786055 109.65213256 -14.2421875 119.59765625 C-14.33538773 120.39346603 -14.42858795 121.18927582 -14.52461243 122.00920105 C-14.9504148 125.64672493 -15.37451466 129.28442769 -15.79467773 132.92260742 C-15.94106689 134.18049072 -16.08745605 135.43837402 -16.23828125 136.734375 C-16.36243408 137.80913086 -16.48658691 138.88388672 -16.61450195 139.99121094 C-17.00126195 143.00984947 -17.47998312 146.00169437 -18 149 C-23.14829744 144.69372744 -27.95752072 140.17688069 -32.68359375 135.4140625 C-33.38396255 134.71227875 -34.08433136 134.010495 -34.80592346 133.28744507 C-37.01883027 131.06898864 -39.22821416 128.84706185 -41.4375 126.625 C-42.94703314 125.11044534 -44.45679657 123.59612015 -45.96679688 122.08203125 C-49.64719702 118.39066901 -53.32471957 114.69645931 -57 111 C-60.83937481 112.77030817 -62.99790272 114.94251048 -65.8125 118.125 C-66.25480957 118.62217529 -66.69711914 119.11935059 -67.15283203 119.6315918 C-68.44106957 121.08255654 -69.72073467 122.54111863 -71 124 C-71.58910156 124.66386719 -72.17820312 125.32773437 -72.78515625 126.01171875 C-75.48159861 129.06592005 -78.13525859 132.15600922 -80.78125 135.25390625 C-81.8124583 136.46097313 -82.84370948 137.66800337 -83.875 138.875 C-84.39473389 139.48359863 -84.91446777 140.09219727 -85.44995117 140.71923828 C-88.47905595 144.25642957 -91.55156303 147.74401054 -94.6875 151.1875 C-98.44515305 155.32831267 -101.97765938 159.61643593 -105.49609375 163.9609375 C-108.37987673 167.46106724 -111.33601435 170.89120679 -114.3125 174.3125 C-114.86357422 174.94599365 -115.41464844 175.5794873 -115.98242188 176.23217773 C-117.10162485 177.51831655 -118.22092837 178.80436788 -119.34033203 180.09033203 C-126.23043169 188.0183049 -133.03600825 196.00087973 -139.65625 204.15625 C-142.39302426 207.47686944 -145.19117497 210.74033789 -148 214 C-152.24532676 218.93033497 -156.42062447 223.90684139 -160.5234375 228.95703125 C-163.665932 232.81823506 -166.8330335 236.65886272 -170 240.5 C-178.10440941 250.33639581 -186.16978752 260.20359526 -194.20336914 270.09790039 C-197.29491428 273.90465036 -200.39212113 277.70655962 -203.5 281.5 C-211.69221123 291.50770126 -219.87534699 301.51632644 -227.83544922 311.71020508 C-231.87809315 316.87483235 -236.01734578 321.95787441 -240.1640625 327.0390625 C-244.11186336 331.88494128 -247.98798898 336.78170143 -251.83374023 341.70874023 C-255.3537536 346.2066412 -258.94868312 350.63976113 -262.5625 355.0625 C-267.32527272 360.89637359 -271.97104985 366.80186145 -276.5390625 372.7890625 C-279.15886329 376.2195027 -281.82729219 379.61071352 -284.5 383 C-289.72037077 389.6258904 -294.86861088 396.30509248 -300 403 C-305.57795243 410.27076386 -311.18009888 417.52134062 -316.8125 424.75 C-323.0879427 432.8059886 -329.29885289 440.90976573 -335.49365234 449.02783203 C-337.84470063 452.10591437 -340.20227307 455.17895229 -342.5625 458.25 C-343.32691406 459.24515625 -344.09132813 460.2403125 -344.87890625 461.265625 C-345.57886719 462.16796875 -346.27882813 463.0703125 -347 464 C-347.82573517 465.30453377 -347.82573517 465.30453377 -348.66815186 466.63542175 C-351.28425451 469.28824434 -352.65525461 469.58303872 -356.32073975 469.62210083 C-357.01701477 469.60412445 -357.71328979 469.58614807 -358.43066406 469.56762695 C-359.17251953 469.56835709 -359.914375 469.56908722 -360.67871094 469.56983948 C-363.1250989 469.56636243 -365.56957072 469.52749972 -368.015625 469.48828125 C-369.71383626 469.47895344 -371.41206099 469.47183718 -373.11029053 469.46684265 C-377.5756966 469.44777006 -382.0402869 469.39866762 -386.50537109 469.34332275 C-391.0633643 469.29213554 -395.62148959 469.26932978 -400.1796875 469.24414062 C-409.1201497 469.19054865 -418.06000696 469.1052331 -427 469 C-425.39255861 464.71828705 -423.25395548 461.51560255 -420.375 458 C-419.38248322 456.76302595 -418.39170938 455.52465212 -417.40234375 454.28515625 C-416.86077637 453.60727051 -416.31920898 452.92938477 -415.76123047 452.23095703 C-412.4293749 448.01048348 -409.18855746 443.7203119 -405.9375 439.4375 C-404.55090583 437.61318655 -403.16418976 435.78896576 -401.77734375 433.96484375 C-401.12362793 433.10487793 -400.46991211 432.24491211 -399.79638672 431.35888672 C-397.54136512 428.39775344 -395.27287387 425.44745363 -393 422.5 C-388.70873021 416.9321676 -384.44616324 411.34280464 -380.1875 405.75 C-370.18061309 392.61055291 -360.1710305 379.4763636 -350.01904297 366.44848633 C-346.66466006 362.14339846 -343.32310344 357.82928042 -340 353.5 C-335.41928314 347.53301357 -330.80063576 341.59604485 -326.1784668 335.66113281 C-322.70770987 331.20244685 -319.25065838 326.73385913 -315.8125 322.25 C-311.05254475 316.05116939 -306.22838395 309.90461823 -301.39111328 303.76611328 C-299.54972891 301.42835011 -297.71126001 299.08830399 -295.87304688 296.74804688 C-294.49774115 294.99712423 -293.12191723 293.24660958 -291.74609375 291.49609375 C-289.92396622 289.17719876 -288.10381206 286.85677485 -286.28515625 284.53515625 C-281.05672483 277.86439892 -275.79114719 271.22547284 -270.48730469 264.61450195 C-267.06778685 260.34786118 -263.68189649 256.05629349 -260.3125 251.75 C-256.30842152 246.63537921 -252.23519534 241.58445841 -248.10546875 236.5703125 C-246.08761344 234.10695667 -244.10292054 231.62046973 -242.125 229.125 C-238.50817814 224.58411986 -234.76127526 220.16445144 -230.99658203 215.74658203 C-228.42365756 212.71640753 -225.91628796 209.65797827 -223.5 206.5 C-220.20233973 202.19252989 -216.70414713 198.06573793 -213.1875 193.9375 C-210.25238124 190.48913643 -207.35768082 187.01320616 -204.5 183.5 C-200.75379155 178.89751534 -196.93477213 174.36277589 -193.09033203 169.8425293 C-190.14041096 166.36756977 -187.24335594 162.85546927 -184.375 159.3125 C-180.80184368 154.91917078 -177.0637577 150.7157897 -173.25 146.53125 C-170.92137947 143.9115519 -168.70437053 141.2248469 -166.5 138.5 C-162.83462965 133.9725652 -159.02009158 129.62153542 -155.1015625 125.3125 C-151.03053118 120.83285215 -147.07447641 116.25366166 -143.1328125 111.66015625 C-137.03938272 104.57321223 -130.84924268 97.60839324 -124.46118164 90.78540039 C-121.15730874 87.25538004 -117.92431697 83.6807424 -114.765625 80.01953125 C-110.91578852 75.61606785 -106.94501845 71.3180886 -103 67 C-104.41702854 63.77343266 -106.11831151 61.64618545 -108.62353516 59.18115234 C-109.36415192 58.44714203 -110.10476868 57.71313171 -110.86782837 56.95687866 C-111.66683563 56.17446808 -112.4658429 55.3920575 -113.2890625 54.5859375 C-114.10748627 53.77508698 -114.92591003 52.96423645 -115.76913452 52.1288147 C-118.383021 49.53936726 -121.00321566 46.9564492 -123.625 44.375 C-127.08116349 40.97179487 -130.53083526 37.56220516 -133.9765625 34.1484375 C-134.77961823 33.36197845 -135.58267395 32.57551941 -136.4100647 31.76522827 C-137.14437714 31.03752228 -137.87868958 30.30981628 -138.63525391 29.56005859 C-139.61215683 28.59886612 -139.61215683 28.59886612 -140.60879517 27.61825562 C-142 26 -142 26 -142 24 C-134.56285323 22.70629514 -127.12531667 21.41484789 -119.6875 20.125 C-118.5420874 19.92636353 -117.3966748 19.72772705 -116.21655273 19.52307129 C-94.75657825 15.80396557 -73.28527418 12.1536198 -51.80737305 8.53955078 C-49.47570346 8.14642708 -47.14407847 7.75303873 -44.8125 7.359375 C-43.68709305 7.16942963 -42.5616861 6.97948425 -41.4021759 6.78378296 C-35.3069497 5.7493698 -29.21724346 4.68790208 -23.1328125 3.59179688 C-21.84528076 3.3599469 -20.55774902 3.12809692 -19.23120117 2.88922119 C-16.7517198 2.4408035 -14.27269341 1.98986072 -11.79418945 1.53607178 C-10.68519287 1.33499817 -9.57619629 1.13392456 -8.43359375 0.92675781 C-6.96490845 0.65789764 -6.96490845 0.65789764 -5.46655273 0.38360596 C-3 0 -3 0 0 0 Z " fill="#13C8B0" transform="translate(725,269)"/>
<path d="M0 0 C21.59319707 9.67145412 37.20514944 43.85114736 45.20410156 64.82519531 C48.76181979 74.54671493 50.95796256 84.67689889 53.16796875 94.7734375 C53.30485107 95.39653809 53.4417334 96.01963867 53.58276367 96.66162109 C54.67096707 102.76039943 55.16956791 108.76298924 55.23828125 114.953125 C55.2480751 115.68690369 55.25786896 116.42068237 55.26795959 117.17669678 C55.43455642 132.88179049 55.34887439 147.78715745 51 163 C50.78037598 163.82306641 50.56075195 164.64613281 50.33447266 165.49414062 C44.28168416 188.1631829 34.62314871 209.23927762 19 227 C18.32839844 227.77988281 17.65679688 228.55976562 16.96484375 229.36328125 C-15.91669015 266.78019914 -59.53923188 288.38469467 -109 294 C-113.41988302 294.24178261 -117.82195555 294.25503377 -122.24755859 294.22705078 C-124.10868034 294.22748886 -124.10868034 294.22748886 -126.00740051 294.22793579 C-129.35987092 294.2267938 -132.71208476 294.21687087 -136.06450987 294.20278788 C-139.58650654 294.19015392 -143.10850784 294.18910016 -146.63052368 294.18673706 C-153.2776666 294.18055905 -159.92474252 294.16419891 -166.57185614 294.14403808 C-174.14881072 294.12156345 -181.72576875 294.11065679 -189.30274844 294.10064721 C-204.86853755 294.07982873 -220.43426008 294.04472558 -236 294 C-234.60706432 291.15092268 -233.11811272 288.64101391 -231.234375 286.0859375 C-230.68136719 285.3343335 -230.12835938 284.58272949 -229.55859375 283.80834961 C-228.96175781 283.00534424 -228.36492187 282.20233887 -227.75 281.375 C-227.12738281 280.53396729 -226.50476563 279.69293457 -225.86328125 278.82641602 C-219.96515705 270.89228189 -213.90887512 263.08656876 -207.80712891 255.30859375 C-205.87944483 252.84599166 -203.96022195 250.37698059 -202.04296875 247.90625 C-201.07520508 246.65920288 -201.07520508 246.65920288 -200.08789062 245.38696289 C-198.84283929 243.78218385 -197.5980383 242.17721054 -196.35351562 240.57202148 C-195.79728516 239.85602783 -195.24105469 239.14003418 -194.66796875 238.40234375 C-194.17578857 237.76804443 -193.6836084 237.13374512 -193.17651367 236.48022461 C-192 235 -192 235 -191 234 C-188.86263732 233.89695201 -186.72186789 233.8642611 -184.58203125 233.8581543 C-183.91003189 233.85467987 -183.23803253 233.85120544 -182.54566956 233.84762573 C-181.07682124 233.84024773 -179.60796161 233.83491331 -178.13909912 233.83133507 C-175.78811849 233.82414417 -173.43734358 233.80844404 -171.08642578 233.78999329 C-164.39765808 233.7377491 -157.70898533 233.68988659 -151.02001953 233.67407227 C-106.50953523 233.55244585 -66.42958298 226.85146509 -33.39160156 194.41015625 C-14.48597496 175.25245463 -4.76164734 148.34491235 -4.74902344 121.62011719 C-5.1831532 92.58604483 -18.12174748 66.59717667 -38 46 C-36.36820117 42.16802297 -33.82399499 39.23878988 -31.125 36.125 C-30.6417627 35.56055176 -30.15852539 34.99610352 -29.66064453 34.41455078 C-28.11112395 32.60619605 -26.55599033 30.80278929 -25 29 C-22.95687294 26.62625314 -20.91566863 24.25086042 -18.875 21.875 C-18.37500488 21.29395508 -17.87500977 20.71291016 -17.35986328 20.11425781 C-13.46673713 15.57800811 -9.67889417 10.96725826 -5.9375 6.3046875 C-4.06233845 4.07415259 -2.09197014 2.02659607 0 0 Z " fill="#3D4554" transform="translate(645,444)"/>
<path d="M0 0 C0.69673828 0.04398926 1.39347656 0.08797852 2.11132812 0.13330078 C33.04099238 2.37866156 62.07993483 13.84575354 87 32 C85.59160505 36.29445018 83.54145224 38.87046479 80.4375 42.125 C76.96080219 45.84646533 73.63504439 49.59371692 70.4375 53.5625 C67.51520193 57.18573729 64.51438401 60.68814475 61.375 64.125 C57.32589328 68.56549665 53.60820603 73.19679326 50 78 C45.36901335 77.39672971 41.68593638 75.41445096 37.625 73.25 C16.67149147 62.47528853 -6.85884314 58.61833562 -30 64 C-31.36125 64.309375 -31.36125 64.309375 -32.75 64.625 C-48.25393907 68.50098477 -60.8222418 75.84842228 -73 86 C-73.60457031 86.45761719 -74.20914063 86.91523438 -74.83203125 87.38671875 C-92.22058627 100.94734831 -102.89408301 125.70804586 -106 147 C-106.28543524 150.90072206 -106.33418981 154.77736119 -106.3125 158.6875 C-106.30758545 159.74187256 -106.3026709 160.79624512 -106.29760742 161.88256836 C-106.17235889 170.26908157 -105.27988678 177.89578707 -103 186 C-102.67128906 187.21429687 -102.34257812 188.42859375 -102.00390625 189.6796875 C-97.08433362 206.05556594 -88.1965967 220.05007605 -76 232 C-77.69219478 235.91977322 -80.28803932 239.07223508 -82.9375 242.375 C-83.9349665 243.63145432 -84.9323603 244.88796636 -85.9296875 246.14453125 C-86.43983398 246.78471191 -86.94998047 247.42489258 -87.47558594 248.08447266 C-89.84978336 251.06780913 -92.20668076 254.06464418 -94.5625 257.0625 C-95.01302734 257.63452148 -95.46355469 258.20654297 -95.92773438 258.79589844 C-98.23047343 261.72470499 -100.51527358 264.66556411 -102.7734375 267.62890625 C-103.44524048 268.50953735 -103.44524048 268.50953735 -104.13061523 269.40795898 C-105.35943221 271.0224312 -106.58415355 272.64001836 -107.80859375 274.2578125 C-109.7493268 276.68632338 -111.75130316 278.8588718 -114 281 C-122.18315799 273.24420229 -129.33891171 265.08993963 -136 256 C-136.64799561 255.11852295 -136.64799561 255.11852295 -137.30908203 254.21923828 C-162.00068369 220.15250026 -171.81807515 176.22543974 -165.47680664 134.77197266 C-159.67277107 101.00361666 -144.37861967 71.79161317 -121 47 C-120.37867188 46.32582031 -119.75734375 45.65164063 -119.1171875 44.95703125 C-89.26518032 13.66863042 -42.67149977 -2.73260972 0 0 Z " fill="#18D1B7" transform="translate(475,328)"/>
<path d="M0 0 C0.99 0 1.98 0 3 0 C2.4907193 5.02783382 1.9756244 10.05503134 1.45581055 15.08178711 C1.28082395 16.78117923 1.10725378 18.48071797 0.93530273 20.18041992 C-0.10473676 30.44966617 -1.33670351 40.66356136 -2.83798218 50.87573242 C-4.40644005 61.62156321 -5.66283125 72.40361347 -6.9375 83.1875 C-7.19860327 85.37990766 -7.45991766 87.57229019 -7.72143555 89.76464844 C-8.90597038 99.70769956 -10.0786055 109.65213256 -11.2421875 119.59765625 C-11.33538773 120.39346603 -11.42858795 121.18927582 -11.52461243 122.00920105 C-11.9504148 125.64672493 -12.37451466 129.28442769 -12.79467773 132.92260742 C-12.94106689 134.18049072 -13.08745605 135.43837402 -13.23828125 136.734375 C-13.36243408 137.80913086 -13.48658691 138.88388672 -13.61450195 139.99121094 C-14.00126195 143.00984947 -14.47998312 146.00169437 -15 149 C-20.14829744 144.69372744 -24.95752072 140.17688069 -29.68359375 135.4140625 C-30.38396255 134.71227875 -31.08433136 134.010495 -31.80592346 133.28744507 C-34.01883027 131.06898864 -36.22821416 128.84706185 -38.4375 126.625 C-39.94703314 125.11044534 -41.45679657 123.59612015 -42.96679688 122.08203125 C-46.64719702 118.39066901 -50.32471957 114.69645931 -54 111 C-57.83937481 112.77030817 -59.99790272 114.94251048 -62.8125 118.125 C-63.25480957 118.62217529 -63.69711914 119.11935059 -64.15283203 119.6315918 C-65.44106957 121.08255654 -66.72073467 122.54111863 -68 124 C-68.58910156 124.66386719 -69.17820312 125.32773437 -69.78515625 126.01171875 C-72.48159861 129.06592005 -75.13525859 132.15600922 -77.78125 135.25390625 C-78.8124583 136.46097313 -79.84370948 137.66800337 -80.875 138.875 C-81.39473389 139.48359863 -81.91446777 140.09219727 -82.44995117 140.71923828 C-85.47905595 144.25642957 -88.55156303 147.74401054 -91.6875 151.1875 C-95.44515305 155.32831267 -98.97765938 159.61643593 -102.49609375 163.9609375 C-105.37987673 167.46106724 -108.33601435 170.89120679 -111.3125 174.3125 C-111.86357422 174.94599365 -112.41464844 175.5794873 -112.98242188 176.23217773 C-114.10162485 177.51831655 -115.22092837 178.80436788 -116.34033203 180.09033203 C-123.23043169 188.0183049 -130.03600825 196.00087973 -136.65625 204.15625 C-139.39302426 207.47686944 -142.19117497 210.74033789 -145 214 C-149.24532676 218.93033497 -153.42062447 223.90684139 -157.5234375 228.95703125 C-160.665932 232.81823506 -163.8330335 236.65886272 -167 240.5 C-175.10440941 250.33639581 -183.16978752 260.20359526 -191.20336914 270.09790039 C-194.29491428 273.90465036 -197.39212113 277.70655962 -200.5 281.5 C-208.69221123 291.50770126 -216.87534699 301.51632644 -224.83544922 311.71020508 C-228.87809315 316.87483235 -233.01734578 321.95787441 -237.1640625 327.0390625 C-241.11186336 331.88494128 -244.98798898 336.78170143 -248.83374023 341.70874023 C-252.3537536 346.2066412 -255.94868312 350.63976113 -259.5625 355.0625 C-264.32527272 360.89637359 -268.97104985 366.80186145 -273.5390625 372.7890625 C-276.15886329 376.2195027 -278.82729219 379.61071352 -281.5 383 C-286.72037077 389.6258904 -291.86861088 396.30509248 -297 403 C-302.57795243 410.27076386 -308.18009888 417.52134062 -313.8125 424.75 C-320.0879427 432.8059886 -326.29885289 440.90976573 -332.49365234 449.02783203 C-334.84470063 452.10591437 -337.20227307 455.17895229 -339.5625 458.25 C-340.32691406 459.24515625 -341.09132813 460.2403125 -341.87890625 461.265625 C-342.57886719 462.16796875 -343.27882813 463.0703125 -344 464 C-344.82573517 465.30453377 -344.82573517 465.30453377 -345.66815186 466.63542175 C-348.28425451 469.28824434 -349.65525461 469.58303872 -353.32073975 469.62210083 C-354.01701477 469.60412445 -354.71328979 469.58614807 -355.43066406 469.56762695 C-356.17251953 469.56835709 -356.914375 469.56908722 -357.67871094 469.56983948 C-360.1250989 469.56636243 -362.56957072 469.52749972 -365.015625 469.48828125 C-366.71383626 469.47895344 -368.41206099 469.47183718 -370.11029053 469.46684265 C-374.5756966 469.44777006 -379.0402869 469.39866762 -383.50537109 469.34332275 C-388.0633643 469.29213554 -392.62148959 469.26932978 -397.1796875 469.24414062 C-406.1201497 469.19054865 -415.06000696 469.1052331 -424 469 C-422.75079018 465.77211372 -421.57076399 463.15199706 -419.3984375 460.44921875 C-418.90859375 459.83369141 -418.41875 459.21816406 -417.9140625 458.58398438 C-417.15222656 457.64522461 -417.15222656 457.64522461 -416.375 456.6875 C-415.859375 456.04232422 -415.34375 455.39714844 -414.8125 454.73242188 C-413.54705818 453.1506196 -412.27425738 451.57470937 -411 450 C-410 453 -410 453 -411.1875 455.5625 C-413.07754997 458.10429134 -414.26397956 458.63198978 -417 460 C-417.67156616 461.93618425 -417.67156616 461.93618425 -418 464 C-418.66 464.99 -419.32 465.98 -420 467 C-410.94237188 467.13901995 -401.8851109 467.24562968 -392.82664871 467.31087303 C-388.62037731 467.34218701 -384.41483571 467.38465883 -380.20898438 467.45263672 C-376.14999983 467.51783028 -372.09171713 467.55370555 -368.03224945 467.56926346 C-366.48359881 467.58035014 -364.93498662 467.60200094 -363.38663483 467.63438034 C-361.21687356 467.67795012 -359.05001114 467.68393485 -356.87988281 467.68115234 C-355.64522278 467.69447601 -354.41056274 467.70779968 -353.13848877 467.7215271 C-349.70409823 467.28528165 -349.70409823 467.28528165 -347.69500732 463.95742798 C-347.13565491 462.98147675 -346.57630249 462.00552551 -346 461 C-345.34 461 -344.68 461 -344 461 C-343.73703125 460.43539063 -343.4740625 459.87078125 -343.203125 459.2890625 C-336.90123369 447.29910046 -326.7444331 436.61951079 -318.42285156 425.984375 C-317.0286659 424.2004071 -315.63881754 422.41314807 -314.25 420.625 C-313.08210938 419.12839844 -313.08210938 419.12839844 -311.890625 417.6015625 C-310.31076363 415.42762102 -309.17203091 413.39638462 -308 411 C-306.33333333 409.33333333 -304.66666667 407.66666667 -303 406 C-301.39863218 403.88713877 -299.85312668 401.74549218 -298.33203125 399.57421875 C-297.89246094 399.05472656 -297.45289063 398.53523438 -297 398 C-296.34 398 -295.68 398 -295 398 C-294.88527344 397.41734375 -294.77054688 396.8346875 -294.65234375 396.234375 C-293.95175938 393.83476865 -293.01807405 392.27139067 -291.5625 390.25 C-291.13066406 389.63640625 -290.69882812 389.0228125 -290.25390625 388.390625 C-289.84011719 387.93171875 -289.42632812 387.4728125 -289 387 C-288.34 387 -287.68 387 -287 387 C-286.77441406 386.30003906 -286.54882812 385.60007812 -286.31640625 384.87890625 C-284.71716285 381.38145111 -282.46693791 378.78058304 -279.9375 375.9375 C-273.86068698 368.94276679 -268.14438694 361.71658041 -263 354 C-262.34 354 -261.68 354 -261 354 C-260.5978125 353.1646875 -260.5978125 353.1646875 -260.1875 352.3125 C-258.89100504 349.78774666 -257.57523677 347.36285516 -256 345 C-255.34 345 -254.68 345 -254 345 C-254 344.34 -254 343.68 -254 343 C-253.34 343 -252.68 343 -252 343 C-251.7421875 342.27425781 -251.484375 341.54851562 -251.21875 340.80078125 C-249.94757501 337.87952333 -248.45983598 335.69127351 -246.5 333.1875 C-245.8915625 332.39730469 -245.283125 331.60710937 -244.65625 330.79296875 C-244.1096875 330.20128906 -243.563125 329.60960937 -243 329 C-242.34 329 -241.68 329 -241 329 C-240.896875 328.360625 -240.79375 327.72125 -240.6875 327.0625 C-240.460625 326.381875 -240.23375 325.70125 -240 325 C-239.01 324.67 -238.02 324.34 -237 324 C-237 323.01 -237 322.02 -237 321 C-236.34 321 -235.68 321 -235 321 C-234.938125 320.443125 -234.87625 319.88625 -234.8125 319.3125 C-233.6519231 316.00931958 -231.59786554 314.28105267 -229 312 C-228.34 312 -227.68 312 -227 312 C-226.855625 311.38125 -226.71125 310.7625 -226.5625 310.125 C-226 308 -226 308 -225 306 C-224.34 306 -223.68 306 -223 306 C-222.75894531 305.44957031 -222.51789063 304.89914062 -222.26953125 304.33203125 C-220.71180898 301.47061526 -218.78501423 299.17984044 -216.6875 296.6875 C-214.00584897 293.4712433 -211.42111489 290.2727434 -209.0625 286.8125 C-208.381875 285.884375 -207.70125 284.95625 -207 284 C-206.34 284 -205.68 284 -205 284 C-204.71125 283.401875 -204.4225 282.80375 -204.125 282.1875 C-203 280 -203 280 -201 277 C-200.34 277 -199.68 277 -199 277 C-198.67708984 275.96939453 -198.67708984 275.96939453 -198.34765625 274.91796875 C-196.60494188 271.14461329 -194.17480523 268.4073022 -191.4375 265.3125 C-187.85080297 261.41394767 -187.85080297 261.41394767 -185 257 C-184.34 257 -183.68 257 -183 257 C-182.71125 256.401875 -182.4225 255.80375 -182.125 255.1875 C-181 253 -181 253 -179 250 C-178.34 250 -177.68 250 -177 250 C-176.75507812 249.27167969 -176.51015625 248.54335938 -176.2578125 247.79296875 C-174.85525932 244.67860377 -173.22086374 242.78505673 -170.875 240.3125 C-163.11617497 232.26040998 -163.11617497 232.26040998 -157 223 C-156.34 223 -155.68 223 -155 223 C-154.731875 222.443125 -154.46375 221.88625 -154.1875 221.3125 C-152.89100504 218.78774666 -151.57523677 216.36285516 -150 214 C-149.34 214 -148.68 214 -148 214 C-148 213.34 -148 212.68 -148 212 C-147.34 212 -146.68 212 -146 212 C-145.731875 211.4225 -145.46375 210.845 -145.1875 210.25 C-143.97070811 207.94449957 -142.69666121 205.97943808 -141 204 C-140.34 204 -139.68 204 -139 204 C-138.34 202.35 -137.68 200.7 -137 199 C-136.34 199 -135.68 199 -135 199 C-135 198.01 -135 197.02 -135 196 C-133.3941967 194.2746156 -131.7162431 192.61556962 -130 191 C-122.57686753 183.10984926 -115.02171766 175.03257649 -109 166 C-108.34 166 -107.68 166 -107 166 C-106.75636719 165.43796875 -106.51273438 164.8759375 -106.26171875 164.296875 C-104.75819064 161.55980215 -102.93300252 159.54204059 -100.8125 157.25 C-100.01328125 156.37730469 -99.2140625 155.50460937 -98.390625 154.60546875 C-97.60171875 153.74566406 -96.8128125 152.88585937 -96 152 C-94.68190604 150.52581596 -93.36878197 149.0471608 -92.0625 147.5625 C-91.51722656 146.94503906 -90.97195313 146.32757813 -90.41015625 145.69140625 C-88.81877961 143.84382494 -88.81877961 143.84382494 -87 141 C-86.34 141 -85.68 141 -85 141 C-84.71125 140.401875 -84.4225 139.80375 -84.125 139.1875 C-83 137 -83 137 -81 134 C-80.34 134 -79.68 134 -79 134 C-79 133.34 -79 132.68 -79 132 C-78.34 132 -77.68 132 -77 132 C-76.75636719 131.43796875 -76.51273438 130.8759375 -76.26171875 130.296875 C-74.75819064 127.55980215 -72.93300252 125.54204059 -70.8125 123.25 C-67.28979121 119.40911106 -63.8236698 115.53179873 -60.41015625 111.59375 C-59.31584855 110.3569701 -58.16771869 109.16771869 -57 108 C-54.3125 107.875 -54.3125 107.875 -51 109 C-49.16667543 110.7233251 -47.64114562 112.58680775 -46.05859375 114.54296875 C-43.64954536 117.41828457 -41.04180829 120.05512811 -38.375 122.6875 C-37.02535156 124.02361328 -37.02535156 124.02361328 -35.6484375 125.38671875 C-34.77445313 126.24910156 -33.90046875 127.11148438 -33 128 C-31.33203277 129.66536509 -29.66536306 131.33203074 -28 133 C-26.67548828 134.32451172 -26.67548828 134.32451172 -25.32421875 135.67578125 C-22.8828125 138.1171875 -20.44140625 140.55859375 -18 143 C-14.27021503 129.68431908 -13.49075254 115.20857217 -11.875 101.5 C-11.78882416 100.77310974 -11.70264832 100.04621948 -11.61386108 99.29730225 C-10.67170983 91.3204441 -9.80457401 83.35338639 -9.25048828 75.33789062 C-9 73 -9 73 -8 70 C-7.7264233 67.92346687 -7.49246409 65.84161255 -7.28125 63.7578125 C-7.15363281 62.52675781 -7.02601563 61.29570312 -6.89453125 60.02734375 C-6.69923828 58.09568359 -6.69923828 58.09568359 -6.5 56.125 C-6.24172467 53.58571879 -5.98138797 51.04664619 -5.71875 48.5078125 C-5.54762695 46.81615967 -5.54762695 46.81615967 -5.37304688 45.09033203 C-5.04205881 42.34841654 -4.55242313 39.70333507 -4 37 C-3.70640571 33.33007135 -3.49475745 29.65975325 -3.28125 25.984375 C-3 23 -3 23 -2 22 C-1.76185516 19.53622997 -1.57750279 17.09455747 -1.4375 14.625 C-1.39431641 13.93921875 -1.35113281 13.2534375 -1.30664062 12.546875 C-1.13172566 9.69270692 -1 6.86012111 -1 4 C-0.34 3.34 0.32 2.68 1 2 C0.67 1.34 0.34 0.68 0 0 Z " fill="#20A697" transform="translate(722,269)"/>
<path d="M0 0 C1.18078125 -0.01224609 2.3615625 -0.02449219 3.578125 -0.03710938 C5.29515625 -0.04000977 5.29515625 -0.04000977 7.046875 -0.04296875 C8.61453613 -0.04913208 8.61453613 -0.04913208 10.21386719 -0.05541992 C13.50445446 0.20785881 16.15876664 1.05941702 19.25 2.1875 C22.14529124 2.73825553 25.04319768 3.18458251 27.95703125 3.625 C29.09205078 3.9034375 29.09205078 3.9034375 30.25 4.1875 C30.58 4.8475 30.91 5.5075 31.25 6.1875 C29.9196875 6.001875 29.9196875 6.001875 28.5625 5.8125 C27.91410156 5.72355469 27.26570312 5.63460938 26.59765625 5.54296875 C24.91248531 5.28780976 23.23297708 4.9941328 21.55859375 4.67578125 C7.96961858 2.22872442 -6.2611709 2.050563 -19.75 5.1875 C-21.11125 5.496875 -21.11125 5.496875 -22.5 5.8125 C-38.00393907 9.68848477 -50.5722418 17.03592228 -62.75 27.1875 C-63.35457031 27.64511719 -63.95914063 28.10273438 -64.58203125 28.57421875 C-81.97058627 42.13484831 -92.64408301 66.89554586 -95.75 88.1875 C-96.03543524 92.08822206 -96.08418981 95.96486119 -96.0625 99.875 C-96.05758545 100.92937256 -96.0526709 101.98374512 -96.04760742 103.07006836 C-95.92235889 111.45658157 -95.02988678 119.08328707 -92.75 127.1875 C-92.42128906 128.40179687 -92.09257812 129.61609375 -91.75390625 130.8671875 C-86.83433362 147.24306594 -77.9465967 161.23757605 -65.75 173.1875 C-67.44219478 177.10727322 -70.03803932 180.25973508 -72.6875 183.5625 C-73.6849665 184.81895432 -74.6823603 186.07546636 -75.6796875 187.33203125 C-76.18983398 187.97221191 -76.69998047 188.61239258 -77.22558594 189.27197266 C-79.59978336 192.25530913 -81.95668076 195.25214418 -84.3125 198.25 C-84.76302734 198.82202148 -85.21355469 199.39404297 -85.67773438 199.98339844 C-87.98047343 202.91220499 -90.26527358 205.85306411 -92.5234375 208.81640625 C-92.97130615 209.40349365 -93.4191748 209.99058105 -93.88061523 210.59545898 C-95.10943221 212.2099312 -96.33415355 213.82751836 -97.55859375 215.4453125 C-99.4993268 217.87382338 -101.50130316 220.0463718 -103.75 222.1875 C-111.93315799 214.43170229 -119.08891171 206.27743963 -125.75 197.1875 C-126.39799561 196.30602295 -126.39799561 196.30602295 -127.05908203 195.40673828 C-152.25842264 160.63947828 -161.39451973 116.61799694 -154.81811523 74.48291016 C-154.47349992 72.38253395 -154.11359667 70.28467366 -153.75 68.1875 C-153.42 68.1875 -153.09 68.1875 -152.75 68.1875 C-152.75222061 68.85735428 -152.75444122 69.52720856 -152.75672913 70.21736145 C-152.77881727 77.1762336 -152.79392142 84.13509582 -152.80493164 91.09399414 C-152.80996681 93.69263107 -152.8167953 96.29126515 -152.82543945 98.88989258 C-152.83754062 102.62061259 -152.84323641 106.35129522 -152.84765625 110.08203125 C-152.85281754 111.24773148 -152.85797882 112.4134317 -152.86329651 113.61445618 C-152.86340981 115.2357972 -152.86340981 115.2357972 -152.86352539 116.88989258 C-152.865746 117.84253494 -152.86796661 118.79517731 -152.87025452 119.77668762 C-152.85096182 122.33223498 -152.85096182 122.33223498 -151.75 125.1875 C-151.52820215 127.07962737 -151.34385985 128.97634472 -151.1875 130.875 C-151.10371094 131.86886719 -151.01992188 132.86273437 -150.93359375 133.88671875 C-150.87300781 134.64597656 -150.81242187 135.40523437 -150.75 136.1875 C-150.42 136.1875 -150.09 136.1875 -149.75 136.1875 C-149.62882812 136.99574219 -149.50765625 137.80398438 -149.3828125 138.63671875 C-149.21523438 139.70535156 -149.04765625 140.77398438 -148.875 141.875 C-148.71257812 142.93074219 -148.55015625 143.98648438 -148.3828125 145.07421875 C-147.85393469 148.16264168 -147.85393469 148.16264168 -146.6796875 150.83203125 C-145.75 153.1875 -145.75 153.1875 -145.75 157.1875 C-145.09 157.1875 -144.43 157.1875 -143.75 157.1875 C-142.76761592 159.60290306 -141.78899782 162.01971822 -140.8125 164.4375 C-140.39581055 165.46037109 -140.39581055 165.46037109 -139.97070312 166.50390625 C-138.68024244 169.70673638 -137.53199956 172.82587534 -136.75 176.1875 C-136.09 176.1875 -135.43 176.1875 -134.75 176.1875 C-134.22212891 177.18716797 -134.22212891 177.18716797 -133.68359375 178.20703125 C-130.42988771 184.28118221 -126.95754902 190.11952268 -123.16796875 195.875 C-121.75 198.1875 -121.75 198.1875 -120.75 201.1875 C-120.09 201.1875 -119.43 201.1875 -118.75 201.1875 C-117.25618709 202.88968367 -115.82902984 204.65072891 -114.4375 206.4375 C-112.07588729 209.4687041 -109.96260447 212.01741642 -106.95703125 214.421875 C-106.22871094 215.00453125 -105.50039063 215.5871875 -104.75 216.1875 C-104.75 216.8475 -104.75 217.5075 -104.75 218.1875 C-104.09 218.1875 -103.43 218.1875 -102.75 218.1875 C-102.481875 217.61 -102.21375 217.0325 -101.9375 216.4375 C-100.72070811 214.13199957 -99.44666121 212.16693808 -97.75 210.1875 C-97.09 210.1875 -96.43 210.1875 -95.75 210.1875 C-95.481875 209.424375 -95.21375 208.66125 -94.9375 207.875 C-93.76474509 205.22087046 -92.79318638 204.14895892 -90.75 202.1875 C-90.33234375 201.46046875 -89.9146875 200.7334375 -89.484375 199.984375 C-87.43724842 196.68315285 -84.98973472 193.84773071 -82.4375 190.9375 C-78.51018164 186.40209743 -74.98537071 181.84655486 -71.87109375 176.69921875 C-71.50113281 176.20035156 -71.13117188 175.70148438 -70.75 175.1875 C-70.09 175.1875 -69.43 175.1875 -68.75 175.1875 C-69.2553125 174.64480469 -69.760625 174.10210938 -70.28125 173.54296875 C-71.25578125 172.46982422 -71.25578125 172.46982422 -72.25 171.375 C-72.8996875 170.66730469 -73.549375 169.95960938 -74.21875 169.23046875 C-75.75 167.1875 -75.75 167.1875 -75.75 164.1875 C-76.41 164.1875 -77.07 164.1875 -77.75 164.1875 C-80.75 160.72596154 -80.75 160.72596154 -80.75 158.1875 C-81.41 158.1875 -82.07 158.1875 -82.75 158.1875 C-94.87507027 135.02049229 -104.14205589 108.55041157 -97.75 82.1875 C-97.48058594 81.00800781 -97.21117187 79.82851563 -96.93359375 78.61328125 C-94.51851772 68.78119348 -91.41083208 58.67874811 -85.75 50.1875 C-85.09 50.1875 -84.43 50.1875 -83.75 50.1875 C-83.5334375 49.011875 -83.5334375 49.011875 -83.3125 47.8125 C-82.75 45.1875 -82.75 45.1875 -81.75 43.1875 C-81.09 43.1875 -80.43 43.1875 -79.75 43.1875 C-79.3478125 42.3521875 -79.3478125 42.3521875 -78.9375 41.5 C-77.63383449 38.96128296 -76.37991973 36.53458441 -74.75 34.1875 C-73.76 34.1875 -72.77 34.1875 -71.75 34.1875 C-71.6675 33.61 -71.585 33.0325 -71.5 32.4375 C-70.524018 29.50955399 -69.11488777 28.13505463 -66.75 26.1875 C-65.76 26.1875 -64.77 26.1875 -63.75 26.1875 C-63.41935547 25.32705078 -63.41935547 25.32705078 -63.08203125 24.44921875 C-61.33418115 21.48146154 -59.22398025 20.00973474 -56.4375 18 C-55.49261719 17.30519531 -54.54773438 16.61039062 -53.57421875 15.89453125 C-50.84324313 14.24385857 -48.88793981 13.5704544 -45.75 13.1875 C-45.42 12.1975 -45.09 11.2075 -44.75 10.1875 C-42.08984375 8.90625 -42.08984375 8.90625 -38.6875 7.6875 C-36.91439453 7.04554688 -36.91439453 7.04554688 -35.10546875 6.390625 C-33.99816406 5.99359375 -32.89085937 5.5965625 -31.75 5.1875 C-30.33249604 4.60620426 -28.91565356 4.02328768 -27.5 3.4375 C-23.78158472 2.19802824 -20.51571918 1.68255262 -16.6328125 1.3984375 C-4.17051994 0.00224705 -4.17051994 0.00224705 0 0 Z " fill="#24A495" transform="translate(464.75,386.8125)"/>
<path d="M0 0 C-2.475 2.475 -2.475 2.475 -5 5 C-5 4.34 -5 3.68 -5 3 C-5.845625 3.20496094 -6.69125 3.40992188 -7.5625 3.62109375 C-13.71498596 5.08230916 -19.71050379 6.36039022 -26 7 C-31.57622784 7.60817008 -31.57622784 7.60817008 -37 9 C-38.86013612 9.32716051 -40.72570824 9.62384716 -42.59375 9.90234375 C-43.7075 10.07056641 -44.82125 10.23878906 -45.96875 10.41210938 C-47.1340625 10.58548828 -48.299375 10.75886719 -49.5 10.9375 C-56.85869818 12.03712365 -64.1956768 13.18294983 -71.51123047 14.54223633 C-75.10371427 15.20300807 -78.70728568 15.7885609 -82.3125 16.375 C-89.28754449 17.51915006 -96.23799318 18.77300567 -103.1875 20.0625 C-111.77009538 21.64820407 -120.33709152 22.92906517 -129 24 C-131.33398172 24.32876266 -133.66749949 24.66088804 -136 25 C-131.14405664 30.79857343 -131.14405664 30.79857343 -125.5625 35.875 C-124.716875 36.57625 -123.87125 37.2775 -123 38 C-123 38.66 -123 39.32 -123 40 C-122.34 40 -121.68 40 -121 40 C-121 40.66 -121 41.32 -121 42 C-120.01 42.33 -119.02 42.66 -118 43 C-116.66104368 44.66215268 -115.32869858 46.32963607 -114 48 C-112.55469115 49.18836505 -111.10873925 50.37602966 -109.65234375 51.55078125 C-105.16267897 55.48852506 -100.4762174 60.0766777 -99 66 C-99.984375 68.0703125 -99.984375 68.0703125 -101.75 70.125 C-102.40484375 70.89972656 -103.0596875 71.67445313 -103.734375 72.47265625 C-104.48203125 73.30667969 -105.2296875 74.14070313 -106 75 C-106.80953125 75.90621094 -107.6190625 76.81242187 -108.453125 77.74609375 C-110.15374219 79.62668424 -111.86344571 81.49909694 -113.58203125 83.36328125 C-115.65844885 85.62754924 -117.68357757 87.92184742 -119.6875 90.25 C-121.87269387 92.76783462 -124.12431461 95.16118778 -126.5 97.5 C-129.48843618 100.44215509 -132.24655552 103.52096747 -134.98046875 106.69921875 C-136.98357735 108.98129025 -139.03864452 111.20944618 -141.10644531 113.43286133 C-145.1197723 117.75236936 -148.91224489 122.09398928 -152.35546875 126.88671875 C-154.95483299 130.22699442 -157.87618794 133.27149976 -160.75952148 136.36499023 C-164.61543754 140.52348451 -168.194642 144.86244791 -171.75 149.28125 C-174.10475071 152.12657378 -176.5600838 154.8464629 -179.0625 157.5625 C-183.62698505 162.52849068 -187.82979871 167.70293958 -192 173 C-196.37932281 178.44322609 -200.82713984 183.81816592 -205.40014648 189.09936523 C-210.25648067 194.70840423 -214.93069557 200.39811334 -219.41723633 206.30712891 C-225.34748318 214.11455042 -231.59291716 221.59152419 -238.15625 228.87109375 C-239.94249635 230.93360277 -241.57537147 233.04977356 -243.1875 235.25 C-245.57894748 238.49924929 -247.94233919 241.3555366 -251 244 C-251.99 244 -252.98 244 -254 244 C-253.443125 243.32195312 -252.88625 242.64390625 -252.3125 241.9453125 C-248.55383498 237.36126496 -244.80768718 232.77038135 -241.125 228.125 C-237.50817814 223.58411986 -233.76127526 219.16445144 -229.99658203 214.74658203 C-227.42365756 211.71640753 -224.91628796 208.65797827 -222.5 205.5 C-219.20233973 201.19252989 -215.70414713 197.06573793 -212.1875 192.9375 C-209.25238124 189.48913643 -206.35768082 186.01320616 -203.5 182.5 C-199.75379155 177.89751534 -195.93477213 173.36277589 -192.09033203 168.8425293 C-189.14041096 165.36756977 -186.24335594 161.85546927 -183.375 158.3125 C-179.80184368 153.91917078 -176.0637577 149.7157897 -172.25 145.53125 C-169.92137947 142.9115519 -167.70437053 140.2248469 -165.5 137.5 C-161.83462965 132.9725652 -158.02009158 128.62153542 -154.1015625 124.3125 C-150.03053118 119.83285215 -146.07447641 115.25366166 -142.1328125 110.66015625 C-136.03938272 103.57321223 -129.84924268 96.60839324 -123.46118164 89.78540039 C-120.15730874 86.25538004 -116.92431697 82.6807424 -113.765625 79.01953125 C-109.91578852 74.61606785 -105.94501845 70.3180886 -102 66 C-103.41702854 62.77343266 -105.11831151 60.64618545 -107.62353516 58.18115234 C-108.36415192 57.44714203 -109.10476868 56.71313171 -109.86782837 55.95687866 C-110.66683563 55.17446808 -111.4658429 54.3920575 -112.2890625 53.5859375 C-113.10748627 52.77508698 -113.92591003 51.96423645 -114.76913452 51.1288147 C-117.383021 48.53936726 -120.00321566 45.9564492 -122.625 43.375 C-126.08116349 39.97179487 -129.53083526 36.56220516 -132.9765625 33.1484375 C-133.77961823 32.36197845 -134.58267395 31.57551941 -135.4100647 30.76522827 C-136.14437714 30.03752228 -136.87868958 29.30981628 -137.63525391 28.56005859 C-138.28652252 27.91926361 -138.93779114 27.27846863 -139.60879517 26.61825562 C-141 25 -141 25 -141 23 C-110.80108244 17.74684478 -80.59266802 12.55404667 -50.36791992 7.45166016 C-49.19417313 7.25332581 -48.02042633 7.05499146 -46.81111145 6.85064697 C-44.51222898 6.46237097 -42.21323038 6.07478179 -39.91410828 5.68792725 C-34.40717425 4.75857961 -28.90496051 3.80945728 -23.40869141 2.81884766 C-22.36219925 2.63159622 -21.31570709 2.44434479 -20.23750305 2.25141907 C-18.28504834 1.90068406 -16.333457 1.54509077 -14.38298035 1.18351746 C-9.5010419 0.30876455 -4.95992524 -0.18489186 0 0 Z " fill="#4BD8C0" transform="translate(724,270)"/>
<path d="M0 0 C0.69673828 0.04398926 1.39347656 0.08797852 2.11132812 0.13330078 C33.04099238 2.37866156 62.07993483 13.84575354 87 32 C85.57918195 36.35665202 83.44390457 38.99886975 80.3125 42.3125 C79.42433594 43.26382813 78.53617188 44.21515625 77.62109375 45.1953125 C76.75613281 46.12085938 75.89117188 47.04640625 75 48 C72.64592308 50.64885551 70.3188411 53.32027966 68 56 C67.34 55.67 66.68 55.34 66 55 C66 54.34 66 53.68 66 53 C66.66 53 67.32 53 68 53 C68 52.34 68 51.68 68 51 C68.66 51 69.32 51 70 51 C70.23589844 50.44570313 70.47179687 49.89140625 70.71484375 49.3203125 C72.3126455 46.43552758 74.31851009 44.28827968 76.5625 41.875 C79.63719186 38.68492491 79.63719186 38.68492491 82 35 C82.66 35 83.32 35 84 35 C69.40697943 18.39414901 38.90209747 7.38137686 17.4375 5.3125 C16.35275391 5.24482422 16.35275391 5.24482422 15.24609375 5.17578125 C13 5 13 5 10.3659668 4.49731445 C6.52592781 3.92995684 2.76941791 3.85633565 -1.1015625 3.8671875 C-1.86044769 3.86623077 -2.61933289 3.86527405 -3.4012146 3.86428833 C-4.9963184 3.86361116 -6.59142502 3.86543298 -8.18652344 3.86962891 C-10.6244118 3.8749987 -13.0621172 3.86966057 -15.5 3.86328125 C-17.0546879 3.86394182 -18.6093757 3.86522255 -20.1640625 3.8671875 C-20.89017731 3.86516327 -21.61629211 3.86313904 -22.3644104 3.86105347 C-25.73000259 3.87663053 -28.77831573 3.99387225 -32 5 C-33.74808941 5.32301652 -35.49829467 5.63470522 -37.25 5.9375 C-41.89723959 6.77461865 -46.44770595 7.74966005 -51 9 C-51.77988281 9.20367187 -52.55976563 9.40734375 -53.36328125 9.6171875 C-58.86656782 11.14064786 -63.71589908 13.23455254 -68.76953125 15.8828125 C-71 17 -71 17 -73.9375 17.9375 C-91.60108309 24.06568189 -107.10068661 37.71898142 -120 50.8125 C-120.84433594 51.65748047 -121.68867188 52.50246094 -122.55859375 53.37304688 C-127.10556113 57.91419037 -127.10556113 57.91419037 -131 63 C-131.66 63 -132.32 63 -133 63 C-133.33 64.32 -133.66 65.64 -134 67 C-134.66 67 -135.32 67 -136 67 C-136 67.66 -136 68.32 -136 69 C-136.66 69 -137.32 69 -138 69 C-125.07935847 40.18766033 -90.17229013 20.0435117 -62.20703125 9.08984375 C-42.49165267 1.75728157 -20.9971011 -1.34461837 0 0 Z " fill="#46D9C0" transform="translate(475,328)"/>
<path d="M0 0 C0.99 0 1.98 0 3 0 C2.4907193 5.02783382 1.9756244 10.05503134 1.45581055 15.08178711 C1.28082395 16.78117923 1.10725378 18.48071797 0.93530273 20.18041992 C-0.10473676 30.44966617 -1.33670351 40.66356136 -2.83798218 50.87573242 C-4.40644005 61.62156321 -5.66283125 72.40361347 -6.9375 83.1875 C-7.19860327 85.37990766 -7.45991766 87.57229019 -7.72143555 89.76464844 C-8.90597038 99.70769956 -10.0786055 109.65213256 -11.2421875 119.59765625 C-11.33538773 120.39346603 -11.42858795 121.18927582 -11.52461243 122.00920105 C-11.9504148 125.64672493 -12.37451466 129.28442769 -12.79467773 132.92260742 C-12.94106689 134.18049072 -13.08745605 135.43837402 -13.23828125 136.734375 C-13.36243408 137.80913086 -13.48658691 138.88388672 -13.61450195 139.99121094 C-14.00126195 143.00984947 -14.47998312 146.00169437 -15 149 C-20.14829744 144.69372744 -24.95752072 140.17688069 -29.68359375 135.4140625 C-30.38396255 134.71227875 -31.08433136 134.010495 -31.80592346 133.28744507 C-34.01883027 131.06898864 -36.22821416 128.84706185 -38.4375 126.625 C-39.94703314 125.11044534 -41.45679657 123.59612015 -42.96679688 122.08203125 C-46.64719702 118.39066901 -50.32471957 114.69645931 -54 111 C-57.83937481 112.77030817 -59.99790272 114.94251048 -62.8125 118.125 C-63.47596436 118.87076294 -63.47596436 118.87076294 -64.15283203 119.6315918 C-65.44106957 121.08255654 -66.72073467 122.54111863 -68 124 C-68.88365234 124.99580078 -68.88365234 124.99580078 -69.78515625 126.01171875 C-73.6097739 130.34377952 -77.36144898 134.73990842 -81.125 139.125 C-81.62821777 139.71128174 -82.13143555 140.29756348 -82.64990234 140.90161133 C-85.79737257 144.57607814 -88.91044704 148.27669259 -92 152 C-92.67578125 150.234375 -92.67578125 150.234375 -93 148 C-91.85546875 146.078125 -91.85546875 146.078125 -90.1875 144.25 C-89.64480469 143.63640625 -89.10210938 143.0228125 -88.54296875 142.390625 C-87 141 -87 141 -85 141 C-84.71125 140.401875 -84.4225 139.80375 -84.125 139.1875 C-83 137 -83 137 -81 134 C-80.34 134 -79.68 134 -79 134 C-79 133.34 -79 132.68 -79 132 C-78.34 132 -77.68 132 -77 132 C-76.75636719 131.43796875 -76.51273438 130.8759375 -76.26171875 130.296875 C-74.75819064 127.55980215 -72.93300252 125.54204059 -70.8125 123.25 C-67.28979121 119.40911106 -63.8236698 115.53179873 -60.41015625 111.59375 C-59.31584855 110.3569701 -58.16771869 109.16771869 -57 108 C-54.3125 107.875 -54.3125 107.875 -51 109 C-49.16667543 110.7233251 -47.64114562 112.58680775 -46.05859375 114.54296875 C-43.64954536 117.41828457 -41.04180829 120.05512811 -38.375 122.6875 C-37.47523438 123.57824219 -36.57546875 124.46898437 -35.6484375 125.38671875 C-34.33746094 126.68029297 -34.33746094 126.68029297 -33 128 C-31.33203277 129.66536509 -29.66536306 131.33203074 -28 133 C-27.11699219 133.88300781 -26.23398437 134.76601563 -25.32421875 135.67578125 C-22.8828125 138.1171875 -20.44140625 140.55859375 -18 143 C-14.27021503 129.68431908 -13.49075254 115.20857217 -11.875 101.5 C-11.74573624 100.40966461 -11.74573624 100.40966461 -11.61386108 99.29730225 C-10.67170983 91.3204441 -9.80457401 83.35338639 -9.25048828 75.33789062 C-9 73 -9 73 -8 70 C-7.7264233 67.92346687 -7.49246409 65.84161255 -7.28125 63.7578125 C-7.15363281 62.52675781 -7.02601563 61.29570312 -6.89453125 60.02734375 C-6.76433594 58.73957031 -6.63414062 57.45179688 -6.5 56.125 C-6.24172467 53.58571879 -5.98138797 51.04664619 -5.71875 48.5078125 C-5.60466797 47.38004395 -5.49058594 46.25227539 -5.37304688 45.09033203 C-5.04205881 42.34841654 -4.55242313 39.70333507 -4 37 C-3.70640571 33.33007135 -3.49475745 29.65975325 -3.28125 25.984375 C-3 23 -3 23 -2 22 C-1.76185516 19.53622997 -1.57750279 17.09455747 -1.4375 14.625 C-1.37272461 13.59632813 -1.37272461 13.59632813 -1.30664062 12.546875 C-1.13172566 9.69270692 -1 6.86012111 -1 4 C-0.34 3.34 0.32 2.68 1 2 C0.505 1.01 0.505 1.01 0 0 Z " fill="#1E9C90" transform="translate(722,269)"/>
<path d="M0 0 C-0.13835803 4.45859862 -0.28694579 8.91679786 -0.4375 13.375 C-0.47681641 14.64601563 -0.51613281 15.91703125 -0.55664062 17.2265625 C-0.59853516 18.43828125 -0.64042969 19.65 -0.68359375 20.8984375 C-0.72025146 22.01911621 -0.75690918 23.13979492 -0.79467773 24.29443359 C-1 27 -1 27 -2 29 C-2.66 29 -3.32 29 -4 29 C-3.9836853 29.95289917 -3.9836853 29.95289917 -3.96704102 30.92504883 C-3.89513583 38.55316147 -4.34165877 46.08524201 -4.9375 53.6875 C-5.02451172 54.85861328 -5.11152344 56.02972656 -5.20117188 57.23632812 C-5.65399394 63.18339125 -6.19118865 69.09057654 -7 75 C-7.66 75 -8.32 75 -9 75 C-8.99129883 75.61528564 -8.98259766 76.23057129 -8.97363281 76.86450195 C-8.92699909 82.68872018 -9.16918671 88.39400456 -9.75 94.1875 C-9.83507812 95.05753662 -9.92015625 95.92757324 -10.0078125 96.82397461 C-10.86578467 105.25369611 -11.92081031 113.65881923 -13 122.0625 C-13.1659668 123.35760498 -13.33193359 124.65270996 -13.50292969 125.98706055 C-13.98373179 129.66085149 -14.48385223 133.33101597 -15 137 C-15.165 138.17675293 -15.33 139.35350586 -15.5 140.56591797 C-15.665 141.65662598 -15.83 142.74733398 -16 143.87109375 C-16.144375 144.83845459 -16.28875 145.80581543 -16.4375 146.80249023 C-16.623125 147.52766846 -16.80875 148.25284668 -17 149 C-17.66 149.33 -18.32 149.66 -19 150 C-18.39212595 138.61511426 -17.17314262 127.37055855 -15.75 116.0625 C-15.5263237 114.25907893 -15.3030245 112.45561106 -15.08007812 110.65209961 C-14.39242978 105.10067996 -13.69690092 99.55026461 -13 94 C-12.78577582 92.29167061 -12.57158229 90.58333738 -12.35742188 88.875 C-12.20248512 87.63941849 -12.20248512 87.63941849 -12.04441833 86.37887573 C-11.83773345 84.73054372 -11.63107858 83.08220795 -11.42445374 81.43386841 C-11.32249191 80.62054047 -11.22053009 79.80721252 -11.11547852 78.96923828 C-11.01389435 78.15892151 -10.91231018 77.34860474 -10.80764771 76.51373291 C-10.49997379 74.06229119 -10.19127622 71.61097967 -9.88256836 69.15966797 C-8.76831998 60.29009954 -7.68688968 51.41738145 -6.64453125 42.5390625 C-6.53249359 41.58686325 -6.42045593 40.634664 -6.30502319 39.65361023 C-5.76486137 35.05811698 -5.22873287 30.4622107 -4.69921875 25.86547852 C-3.72821567 17.51954255 -2.69447803 9.23778798 -1 1 C-2.01771484 1.2271167 -3.03542969 1.4542334 -4.08398438 1.68823242 C-18.13893299 4.76419481 -32.29278842 7.22818123 -46.47607422 9.62915039 C-49.87209809 10.20437773 -53.26625522 10.78995335 -56.66010284 11.37786579 C-59.92854082 11.94207359 -63.19873266 12.49580072 -66.46875 13.05078125 C-67.68421509 13.26213211 -68.89968018 13.47348297 -70.15197754 13.6912384 C-71.83148499 13.97229683 -71.83148499 13.97229683 -73.54492188 14.2590332 C-74.52908081 14.42683792 -75.51323975 14.59464264 -76.52722168 14.76753235 C-79 15 -79 15 -82 14 C-75.49681177 11.96716547 -68.87859263 10.75244502 -62.1875 9.5 C-59.93092553 9.07325526 -57.67441417 8.64617662 -55.41796875 8.21875 C-54.3297583 8.01386963 -53.24154785 7.80898926 -52.12036133 7.59790039 C-49.29106749 7.05577218 -46.46976255 6.48422358 -43.6484375 5.90234375 C-39.59293015 5.08525962 -35.55110642 4.52053677 -31.4375 4.0625 C-24.82273367 3.29698343 -18.29666533 2.23177739 -11.75952148 0.96508789 C-7.76930461 0.21514153 -4.05140839 -0.05363736 0 0 Z " fill="#06322C" transform="translate(726,268)"/>
<path d="M0 0 C1.18078125 -0.01224609 2.3615625 -0.02449219 3.578125 -0.03710938 C5.29515625 -0.04000977 5.29515625 -0.04000977 7.046875 -0.04296875 C8.61453613 -0.04913208 8.61453613 -0.04913208 10.21386719 -0.05541992 C13.50445446 0.20785881 16.15876664 1.05941702 19.25 2.1875 C22.14529124 2.73825553 25.04319768 3.18458251 27.95703125 3.625 C29.09205078 3.9034375 29.09205078 3.9034375 30.25 4.1875 C30.58 4.8475 30.91 5.5075 31.25 6.1875 C29.9196875 6.001875 29.9196875 6.001875 28.5625 5.8125 C27.91410156 5.72355469 27.26570313 5.63460938 26.59765625 5.54296875 C24.91248531 5.28780976 23.23297708 4.9941328 21.55859375 4.67578125 C7.96961858 2.22872442 -6.2611709 2.050563 -19.75 5.1875 C-21.11125 5.496875 -21.11125 5.496875 -22.5 5.8125 C-38.00393907 9.68848477 -50.5722418 17.03592228 -62.75 27.1875 C-63.35457031 27.64511719 -63.95914063 28.10273438 -64.58203125 28.57421875 C-84.01970619 43.73287391 -93.39318532 70.37529532 -96.48876953 93.90478516 C-97.18408505 99.98067314 -97.50865475 106.07896844 -97.75 112.1875 C-98.08 112.1875 -98.41 112.1875 -98.75 112.1875 C-99.59706405 101.88536966 -100.2091117 92.3296742 -97.75 82.1875 C-97.48058594 81.00800781 -97.21117187 79.82851563 -96.93359375 78.61328125 C-94.51851772 68.78119348 -91.41083208 58.67874811 -85.75 50.1875 C-85.09 50.1875 -84.43 50.1875 -83.75 50.1875 C-83.5334375 49.011875 -83.5334375 49.011875 -83.3125 47.8125 C-82.75 45.1875 -82.75 45.1875 -81.75 43.1875 C-81.09 43.1875 -80.43 43.1875 -79.75 43.1875 C-79.481875 42.630625 -79.21375 42.07375 -78.9375 41.5 C-77.63383449 38.96128296 -76.37991973 36.53458441 -74.75 34.1875 C-73.76 34.1875 -72.77 34.1875 -71.75 34.1875 C-71.6675 33.61 -71.585 33.0325 -71.5 32.4375 C-70.524018 29.50955399 -69.11488777 28.13505463 -66.75 26.1875 C-65.76 26.1875 -64.77 26.1875 -63.75 26.1875 C-63.41935547 25.32705078 -63.41935547 25.32705078 -63.08203125 24.44921875 C-61.33418115 21.48146154 -59.22398025 20.00973474 -56.4375 18 C-55.49261719 17.30519531 -54.54773438 16.61039062 -53.57421875 15.89453125 C-50.84324313 14.24385857 -48.88793981 13.5704544 -45.75 13.1875 C-45.42 12.1975 -45.09 11.2075 -44.75 10.1875 C-42.08984375 8.90625 -42.08984375 8.90625 -38.6875 7.6875 C-37.50542969 7.25953125 -36.32335937 6.8315625 -35.10546875 6.390625 C-33.99816406 5.99359375 -32.89085937 5.5965625 -31.75 5.1875 C-30.33249604 4.60620426 -28.91565356 4.02328768 -27.5 3.4375 C-23.78158472 2.19802824 -20.51571918 1.68255262 -16.6328125 1.3984375 C-4.17051994 0.00224705 -4.17051994 0.00224705 0 0 Z " fill="#2AB4A0" transform="translate(464.75,386.8125)"/>
<path d="M0 0 C0.99 0.66 1.98 1.32 3 2 C2.31035156 2.73863281 1.62070312 3.47726562 0.91015625 4.23828125 C-4.5272244 10.09624354 -9.73722617 16.05108824 -14.75 22.28125 C-17.10475071 25.12657378 -19.5600838 27.8464629 -22.0625 30.5625 C-26.62698505 35.52849068 -30.82979871 40.70293958 -35 46 C-39.37932281 51.44322609 -43.82713984 56.81816592 -48.40014648 62.09936523 C-53.25648067 67.70840423 -57.93069557 73.39811334 -62.41723633 79.30712891 C-68.34748318 87.11455042 -74.59291716 94.59152419 -81.15625 101.87109375 C-82.94249635 103.93360277 -84.57537147 106.04977356 -86.1875 108.25 C-88.57894748 111.49924929 -90.94233919 114.3555366 -94 117 C-94.99 117 -95.98 117 -97 117 C-96.443125 116.32195312 -95.88625 115.64390625 -95.3125 114.9453125 C-91.55383498 110.36126496 -87.80768718 105.77038135 -84.125 101.125 C-80.50817814 96.58411986 -76.76127526 92.16445144 -72.99658203 87.74658203 C-70.42365756 84.71640753 -67.91628796 81.65797827 -65.5 78.5 C-62.20233973 74.19252989 -58.70414713 70.06573793 -55.1875 65.9375 C-52.25238124 62.48913643 -49.35768082 59.01320616 -46.5 55.5 C-42.75379155 50.89751534 -38.93477213 46.36277589 -35.09033203 41.8425293 C-32.14041096 38.36756977 -29.24335594 34.85546927 -26.375 31.3125 C-22.80768741 26.92635587 -19.07541739 22.72992417 -15.26953125 18.55078125 C-9.94493513 12.56633845 -4.9985688 6.25663556 0 0 Z " fill="#43D8BE" transform="translate(567,397)"/>
<path d="M0 0 C6.51953973 -0.12966145 12.49838276 0.66505296 18.85131836 2.1015625 C19.8376123 2.32231445 20.82390625 2.54306641 21.84008789 2.77050781 C44.33526077 8.05885926 64.46835851 17.44016334 83.03881836 31.1015625 C81.61800031 35.45821452 79.48272293 38.10043225 76.35131836 41.4140625 C75.4631543 42.36539063 74.57499023 43.31671875 73.65991211 44.296875 C72.79495117 45.22242188 71.92999023 46.14796875 71.03881836 47.1015625 C68.68474144 49.75041801 66.35765946 52.42184216 64.03881836 55.1015625 C63.37881836 54.7715625 62.71881836 54.4415625 62.03881836 54.1015625 C62.03881836 53.4415625 62.03881836 52.7815625 62.03881836 52.1015625 C62.69881836 52.1015625 63.35881836 52.1015625 64.03881836 52.1015625 C64.03881836 51.4415625 64.03881836 50.7815625 64.03881836 50.1015625 C64.69881836 50.1015625 65.35881836 50.1015625 66.03881836 50.1015625 C66.2747168 49.54726563 66.51061523 48.99296875 66.75366211 48.421875 C68.35146386 45.53709008 70.35732845 43.38984218 72.60131836 40.9765625 C75.67601022 37.78648741 75.67601022 37.78648741 78.03881836 34.1015625 C78.69881836 34.1015625 79.35881836 34.1015625 80.03881836 34.1015625 C65.44579779 17.49571151 34.94091583 6.48293936 13.47631836 4.4140625 C12.7531543 4.36894531 12.02999023 4.32382812 11.28491211 4.27734375 C9.03881836 4.1015625 9.03881836 4.1015625 6.38623047 3.61035156 C2.66230779 3.04433487 -1.00802797 2.87606072 -4.76586914 2.78515625 C-5.48984894 2.76437515 -6.21382874 2.74359406 -6.95974731 2.72218323 C-9.25180403 2.65727397 -11.54396638 2.59807813 -13.83618164 2.5390625 C-15.39869217 2.49582138 -16.96119236 2.45220539 -18.52368164 2.40820312 C-22.3360759 2.30165354 -26.14857544 2.20022455 -29.96118164 2.1015625 C-29.96118164 1.7715625 -29.96118164 1.4415625 -29.96118164 1.1015625 C-25.69048009 0.93140421 -21.41960371 0.76608527 -17.14868164 0.6015625 C-15.95307617 0.55386719 -14.7574707 0.50617188 -13.52563477 0.45703125 C-9.0176263 0.28506362 -4.50858416 0.15463526 0 0 Z " fill="#4DDFC5" transform="translate(478.961181640625,328.8984375)"/>
<path d="M0 0 C0.33 0 0.66 0 1 0 C0.99777939 0.66985428 0.99555878 1.33970856 0.99327087 2.02986145 C0.97118273 8.9887336 0.95607858 15.94759582 0.94506836 22.90649414 C0.94003319 25.50513107 0.9332047 28.10376515 0.92456055 30.70239258 C0.91245938 34.43311259 0.90676359 38.16379522 0.90234375 41.89453125 C0.89718246 43.06023148 0.89202118 44.2259317 0.88670349 45.42695618 C0.88659019 47.0482972 0.88659019 47.0482972 0.88647461 48.70239258 C0.884254 49.65503494 0.88203339 50.60767731 0.87974548 51.58918762 C0.89903818 54.14473498 0.89903818 54.14473498 2 57 C2.22179785 58.89212737 2.40614015 60.78884472 2.5625 62.6875 C2.64628906 63.68136719 2.73007812 64.67523437 2.81640625 65.69921875 C2.87699219 66.45847656 2.93757813 67.21773437 3 68 C3.33 68 3.66 68 4 68 C4.12117188 68.80824219 4.24234375 69.61648438 4.3671875 70.44921875 C4.53476562 71.51785156 4.70234375 72.58648438 4.875 73.6875 C5.11863281 75.27111328 5.11863281 75.27111328 5.3671875 76.88671875 C5.89606531 79.97514168 5.89606531 79.97514168 7.0703125 82.64453125 C8 85 8 85 8 89 C8.66 89 9.32 89 10 89 C10.98238408 91.41540306 11.96100218 93.83221822 12.9375 96.25 C13.35418945 97.27287109 13.35418945 97.27287109 13.77929688 98.31640625 C15.06975756 101.51923638 16.21800044 104.63837534 17 108 C17.66 108 18.32 108 19 108 C19.98753064 109.72440365 20.96468806 111.45475026 21.9375 113.1875 C22.48277344 114.15042969 23.02804687 115.11335937 23.58984375 116.10546875 C24.90579333 118.80662842 25.57301887 121.04356101 26 124 C21.50500433 119.98489711 18.8744229 115.70859776 16.125 110.375 C15.69300293 109.54323242 15.26100586 108.71146484 14.81591797 107.85449219 C-2.38004663 73.92197281 -6.45262771 37.2178348 0 0 Z " fill="#25AE9C" transform="translate(311,455)"/>
<path d="M0 0 C0.99 0.33 1.98 0.66 3 1 C1.02 3.97 1.02 3.97 -1 7 C24.41 6.67 49.82 6.34 76 6 C75.34 7.32 74.68 8.64 74 10 C64.25576086 10.02313836 54.51152822 10.04092273 44.76726723 10.05181217 C40.24294695 10.05703772 35.71864542 10.06412944 31.19433594 10.07543945 C26.83069041 10.08627995 22.46706295 10.09227932 18.103405 10.09487724 C16.43598521 10.09672939 14.76856645 10.10034599 13.10115433 10.10573006 C10.77135303 10.11295589 8.44162705 10.11399029 6.11181641 10.11352539 C5.07064415 10.1189183 5.07064415 10.1189183 4.00843811 10.12442017 C-0.77189568 10.11405216 -0.77189568 10.11405216 -3 9 C-2.25 2.25 -2.25 2.25 0 0 Z " fill="#0F3E38" transform="translate(299,731)"/>
<path d="M0 0 C0.33 0 0.66 0 1 0 C1.29381869 4.93464721 0.30009536 8.46008736 -1.4375 13.0625 C-3.92850854 20.06203526 -4.87793574 26.54469034 -5 34 C-5.02707031 34.96164062 -5.05414063 35.92328125 -5.08203125 36.9140625 C-5.12700796 39.94794623 -5.07730266 42.96679078 -5 46 C-4.97486328 47.87171875 -4.97486328 47.87171875 -4.94921875 49.78125 C-4.60867406 62.26992477 -1.27954881 73.08302601 4.3984375 84.265625 C5 86 5 86 4 89 C-0.96775745 78.50631011 -4.65033434 68.39461517 -7 57 C-7.19207031 56.09121094 -7.38414062 55.18242187 -7.58203125 54.24609375 C-9.98747882 35.56453366 -7.91608514 17.13748218 0 0 Z " fill="#08352E" transform="translate(376,448)"/>
<path d="M0 0 C0.66 0.33 1.32 0.66 2 1 C-4.73381903 10.05242339 -11.55015762 19.03097451 -18.49560547 27.92211914 C-24.48333977 35.59712722 -30.37384635 43.34500119 -36.265625 51.09375 C-40.81912148 57.08152824 -45.40386154 63.04490715 -50 69 C-50.33 68.01 -50.66 67.02 -51 66 C-50.34 66 -49.68 66 -49 66 C-49 64.68 -49 63.36 -49 62 C-46.8125 59.625 -46.8125 59.625 -44 57 C-41.19588179 53.91706322 -38.63823519 50.87219228 -37 47 C-36.34 47 -35.68 47 -35 47 C-34.61328125 46.17242188 -34.61328125 46.17242188 -34.21875 45.328125 C-32.82036875 42.65685825 -31.21236695 40.23148091 -29.5 37.75 C-28.8915625 36.85796875 -28.283125 35.9659375 -27.65625 35.046875 C-27.1096875 34.37140625 -26.563125 33.6959375 -26 33 C-25.34 33 -24.68 33 -24 33 C-24 32.01 -24 31.02 -24 30 C-23.34 30 -22.68 30 -22 30 C-21.34 28.35 -20.68 26.7 -20 25 C-19.34 25 -18.68 25 -18 25 C-17.71125 24.236875 -17.4225 23.47375 -17.125 22.6875 C-16 20 -16 20 -14 17 C-13.34 17 -12.68 17 -12 17 C-11.71125 16.236875 -11.4225 15.47375 -11.125 14.6875 C-10 12 -10 12 -8 9 C-7.34 9 -6.68 9 -6 9 C-5.7525 8.443125 -5.505 7.88625 -5.25 7.3125 C-3.78393985 4.60028873 -1.97010529 2.36412635 0 0 Z " fill="#063029" transform="translate(377,630)"/>
<path d="M0 0 C0.765625 1.6640625 0.765625 1.6640625 1 4 C-0.703125 6.5234375 -0.703125 6.5234375 -3.25 9.375 C-4.18309344 10.44087022 -5.11400161 11.50865656 -6.04296875 12.578125 C-6.77459229 13.4144043 -6.77459229 13.4144043 -7.52099609 14.26757812 C-9.9723136 17.13891339 -12.25853795 20.13519411 -14.5625 23.125 C-18.50598309 28.20638633 -22.64377267 33.02071312 -27.00390625 37.75390625 C-28.88310864 39.86846862 -30.58016942 42.0308231 -32.25 44.3125 C-34.61781182 47.54610451 -36.9619808 50.37252394 -40 53 C-40.99 53 -41.98 53 -43 53 C-42.443125 52.32195313 -41.88625 51.64390625 -41.3125 50.9453125 C-37.55383498 46.36126496 -33.80768718 41.77038135 -30.125 37.125 C-26.96960748 33.16343933 -23.72176452 29.29187588 -20.4375 25.4375 C-16.74981985 21.10706504 -13.16219078 16.72787292 -9.703125 12.2109375 C-6.53030379 8.09209162 -3.2570828 4.0523186 0 0 Z " fill="#3DCCB4" transform="translate(513,461)"/>
<path d="M0 0 C0.99 0.99 0.99 0.99 2 2 C-2.4784168 1.60191851 -6.17546367 0.63019976 -10.375 -1 C-15.33572039 -2.89795518 -19.72434098 -3.57454363 -25 -4 C-25.495 -4.495 -25.495 -4.495 -26 -5 C-27.94323427 -5.1002057 -29.89012234 -5.13081328 -31.8359375 -5.1328125 C-33.04636719 -5.13410156 -34.25679688 -5.13539063 -35.50390625 -5.13671875 C-36.78136719 -5.13285156 -38.05882812 -5.12898438 -39.375 -5.125 C-40.61378906 -5.12886719 -41.85257812 -5.13273437 -43.12890625 -5.13671875 C-50.47603876 -5.12897678 -57.69840493 -4.82720006 -65 -4 C-65 -3.34 -65 -2.68 -65 -2 C-66.91345327 -1.46748234 -68.8309295 -0.94940517 -70.75 -0.4375 C-71.81734375 -0.14746094 -72.8846875 0.14257812 -73.984375 0.44140625 C-76.84335927 0.97098494 -78.31597383 0.98370862 -81 0 C-53.7608336 -10.02340112 -27.24591417 -11.06636996 0 0 Z " fill="#04342B" transform="translate(507,397)"/>
<path d="M0 0 C0.99520855 3.1363744 0.95907583 5.24872896 0.2578125 8.44921875 C0.07863281 9.29806641 -0.10054688 10.14691406 -0.28515625 11.02148438 C-0.47980469 11.90126953 -0.67445313 12.78105469 -0.875 13.6875 C-5.97605159 37.16992716 -4.050797 59.45024214 0 83 C0.3342536 84.9998464 0.66783444 86.99980572 1 89 C-2.85468214 85.61426972 -3.22164306 81.99518853 -4.1640625 77.1171875 C-4.33716949 76.23054413 -4.51027649 75.34390076 -4.68862915 74.4303894 C-6.29274482 65.52445754 -6.54175331 56.77129766 -6.41162109 47.74316406 C-6.37471225 45.10442778 -6.37060686 42.46709519 -6.37109375 39.828125 C-6.31926671 27.25174781 -6.08006882 14.70624555 -1 3 C-0.67 2.01 -0.34 1.02 0 0 Z " fill="#042E26" transform="translate(313,443)"/>
<path d="M0 0 C0.99 0.33 1.98 0.66 3 1 C2.48050781 1.90878906 1.96101563 2.81757813 1.42578125 3.75390625 C-9.45785799 23.18766976 -13.1283745 42.93885801 -14 65 C-14.33 65 -14.66 65 -15 65 C-15.84706405 54.69786966 -16.4591117 45.1421742 -14 35 C-13.73058594 33.82050781 -13.46117187 32.64101563 -13.18359375 31.42578125 C-10.76851772 21.59369348 -7.66083208 11.49124811 -2 3 C-1.34 3 -0.68 3 0 3 C0 2.01 0 1.02 0 0 Z " fill="#23B3A2" transform="translate(381,434)"/>
<path d="M0 0 C0.495 0.99 0.495 0.99 1 2 C-0.19544434 2.029729 -0.19544434 2.029729 -1.41503906 2.06005859 C-5.02702472 2.15533248 -8.63843399 2.26500307 -12.25 2.375 C-14.13138672 2.42140625 -14.13138672 2.42140625 -16.05078125 2.46875 C-17.25605469 2.50742187 -18.46132813 2.54609375 -19.703125 2.5859375 C-21.36843262 2.63306885 -21.36843262 2.63306885 -23.06738281 2.68115234 C-25.93212825 2.99262067 -27.52880105 3.60742415 -30 5 C-32.07256883 5.39477502 -34.15850343 5.72245543 -36.25 6 C-41.96279503 6.81428167 -47.498057 7.78163017 -52.96484375 9.68359375 C-55.58392417 10.09078284 -56.7199079 9.24155191 -59 8 C-50.35526816 5.11192603 -41.89612425 3.03336742 -32.875 1.75 C-31.13416138 1.49524902 -31.13416138 1.49524902 -29.3581543 1.23535156 C-19.52320977 -0.11240261 -9.90558159 -0.4343495 0 0 Z " fill="#4AD1BA" transform="translate(475,328)"/>
<path d="M0 0 C0.640625 1.84765625 0.640625 1.84765625 1 4 C-1.25 6.4375 -1.25 6.4375 -4 9 C-4.495 9.825 -4.99 10.65 -5.5 11.5 C-7.29090825 14.48484709 -9.48215501 16.61127526 -12 19 C-14.14107517 20.83809494 -14.14107517 20.83809494 -14.75 23.3125 C-16 26 -16 26 -18.9375 28.4375 C-22.18385626 31.15383891 -23.23447058 33.22818716 -25 37 C-27.0625 39.375 -27.0625 39.375 -29 41 C-29.66 41 -30.32 41 -31 41 C-29.36515835 37.31721156 -27.09213324 34.36123936 -24.625 31.1875 C-23.97277466 30.34687012 -23.97277466 30.34687012 -23.30737305 29.48925781 C-19.34590183 24.40143791 -15.31644938 19.36777969 -11.27880859 14.34033203 C-7.47012334 9.59784032 -3.70993153 4.82029836 0 0 Z " fill="#2FC3AB" transform="translate(440,552)"/>
<path d="M0 0 C-1.38675656 3.28293391 -2.86032754 4.93914832 -5.75 7 C-6.46027344 7.51175781 -7.17054688 8.02351563 -7.90234375 8.55078125 C-9.69012623 9.78591589 -11.49924781 10.99006931 -13.3125 12.1875 C-17.10133237 14.74275904 -19.12897614 16.82617754 -21 21 C-21.66 21 -22.32 21 -23 21 C-23.66 22.32 -24.32 23.64 -25 25 C-25.66 25 -26.32 25 -27 25 C-27.33 26.32 -27.66 27.64 -28 29 C-29.32 29.33 -30.64 29.66 -32 30 C-27.17981683 20.56047462 -11.54903289 0 0 0 Z " fill="#072A23" transform="translate(417,403)"/>
<path d="M0 0 C1.48831242 0.00667405 2.97660807 0.01863442 4.46484375 0.03515625 C5.22345703 0.03966797 5.98207031 0.04417969 6.76367188 0.04882812 C8.64326246 0.06064945 10.52281274 0.07858547 12.40234375 0.09765625 C9.21109251 1.92924305 6.48531222 2.50216851 2.84375 2.921875 C1.19548218 3.12913208 1.19548218 3.12913208 -0.48608398 3.34057617 C-1.65727783 3.4872876 -2.82847168 3.63399902 -4.03515625 3.78515625 C-15.80364014 5.37078962 -26.56657825 8.17115417 -37.64428711 12.4050293 C-39.60959436 13.10188927 -41.56788244 13.62501581 -43.59765625 14.09765625 C-43.59765625 13.43765625 -43.59765625 12.77765625 -43.59765625 12.09765625 C-30.7614734 7.45644295 -18.18543351 2.90935989 -4.59765625 1.09765625 C-3.59765625 0.09765625 -3.59765625 0.09765625 0 0 Z " fill="#06362B" transform="translate(447.59765625,326.90234375)"/>
<path d="M0 0 C3.39417765 3.12621626 5.6062718 5.56541027 7 10 C7.66 10 8.32 10 9 10 C10.49381291 11.70218367 11.92097016 13.46322891 13.3125 15.25 C15.67411271 18.2812041 17.78739553 20.82991642 20.79296875 23.234375 C21.88544922 24.10835937 21.88544922 24.10835937 23 25 C23 25.66 23 26.32 23 27 C24.32 27.33 25.64 27.66 27 28 C26.01 28.99 25.02 29.98 24 31 C17.87795097 25.19767113 12.20021213 19.26976452 7 12.625 C6.54391357 12.04282715 6.08782715 11.4606543 5.61791992 10.86083984 C3.17901242 7.69076184 0.97875623 4.47584153 -1 1 C-0.67 0.67 -0.34 0.34 0 0 Z " fill="#239A8E" transform="translate(337,578)"/>
<path d="M0 0 C1.13953125 -0.00257813 2.2790625 -0.00515625 3.453125 -0.0078125 C4.649375 -0.00007813 5.845625 0.00765625 7.078125 0.015625 C8.25890625 0.00789063 9.4396875 0.00015625 10.65625 -0.0078125 C11.8009375 -0.00523437 12.945625 -0.00265625 14.125 0 C15.17010742 0.00225586 16.21521484 0.00451172 17.29199219 0.00683594 C20.57491204 0.28666024 23.24162081 1.14169243 26.328125 2.265625 C29.22341624 2.81638053 32.12132268 3.26270751 35.03515625 3.703125 C35.79183594 3.88875 36.54851562 4.074375 37.328125 4.265625 C37.823125 5.255625 37.823125 5.255625 38.328125 6.265625 C37.44125 6.141875 36.554375 6.018125 35.640625 5.890625 C34.98320312 5.80039062 34.32578125 5.71015625 33.6484375 5.6171875 C32.05428478 5.37564921 30.46538565 5.0974873 28.8828125 4.7890625 C16.82521737 2.58781216 4.55056122 2.60228599 -7.671875 2.265625 C-5.01053997 -0.39571003 -3.71261534 0.00804841 0 0 Z " fill="#31BDA8" transform="translate(457.671875,386.734375)"/>
<path d="M0 0 C0.99 0.33 1.98 0.66 3 1 C-4.91671057 11.40004968 -12.8925261 21.74786367 -21 32 C-21.33 31.01 -21.66 30.02 -22 29 C-20.51044901 26.76418098 -19.01211146 24.75282096 -17.3125 22.6875 C-16.41087196 21.56792446 -15.51111584 20.44683871 -14.61328125 19.32421875 C-14.17193848 18.77556152 -13.7305957 18.2269043 -13.27587891 17.66162109 C-12.02648743 16.03449549 -10.90269065 14.36910603 -9.79296875 12.64453125 C-8 10 -8 10 -6 9 C-4.88365848 7.34948712 -4.88365848 7.34948712 -3.875 5.4375 C-3.25625 4.303125 -2.6375 3.16875 -2 2 C-1.34 2 -0.68 2 0 2 C0 1.34 0 0.68 0 0 Z " fill="#063229" transform="translate(425,567)"/>
<path d="M0 0 C0.99 0.33 1.98 0.66 3 1 C-4.52655987 11.1142253 -12.16181441 21.12512052 -20 31 C-20.33 30.01 -20.66 29.02 -21 28 C-19.85546875 25.95703125 -19.85546875 25.95703125 -18.1875 23.8125 C-17.64480469 23.09707031 -17.10210937 22.38164063 -16.54296875 21.64453125 C-16.03378906 21.10183594 -15.52460938 20.55914063 -15 20 C-14.34 20 -13.68 20 -13 20 C-12.896875 19.443125 -12.79375 18.88625 -12.6875 18.3125 C-11.85821592 15.5230899 -10.65700944 13.3860936 -9 11 C-8.34 11 -7.68 11 -7 11 C-6.566875 10.1028125 -6.566875 10.1028125 -6.125 9.1875 C-5 7 -5 7 -3 4 C-2.34 4 -1.68 4 -1 4 C-0.67 2.68 -0.34 1.36 0 0 Z " fill="#07332B" transform="translate(400,599)"/>
<path d="M0 0 C0.33 0.66 0.66 1.32 1 2 C0.06754748 3.58862282 -0.86925699 5.17480534 -1.82421875 6.75 C-3.69381176 10.32769293 -4.76617035 14.13825103 -5.984375 17.9765625 C-7.37602333 22.11939253 -9.12731553 26.05540931 -11 30 C-11.66 30 -12.32 30 -13 30 C-13.33 32.31 -13.66 34.62 -14 37 C-14.66 36.67 -15.32 36.34 -16 36 C-14.39266717 29.33626599 -11.88227757 23.12903023 -9.125 16.875 C-8.79757812 16.1236377 -8.47015625 15.37227539 -8.1328125 14.59814453 C-5.82344915 9.44605413 -3.10825416 4.71117267 0 0 Z " fill="#36C5AE" transform="translate(332,403)"/>
<path d="M0 0 C0.33 0.99 0.66 1.98 1 3 C0.38511719 3.66386719 -0.22976563 4.32773437 -0.86328125 5.01171875 C-1.67152344 5.89472656 -2.47976563 6.77773438 -3.3125 7.6875 C-4.11300781 8.55761719 -4.91351562 9.42773438 -5.73828125 10.32421875 C-7.82120465 12.78847182 -9.37989415 15.22267568 -11 18 C-13.5625 20.8125 -13.5625 20.8125 -16 23 C-16.66 23 -17.32 23 -18 23 C-18.3403125 23.804375 -18.3403125 23.804375 -18.6875 24.625 C-20.43382056 27.78500863 -22.6402849 30.2676983 -25 33 C-25.66 32.67 -26.32 32.34 -27 32 C-25.78053768 30.57729396 -24.56106559 29.15459631 -23.34155273 27.73193359 C-22.27059147 26.48239664 -21.19979362 25.23271962 -20.12915039 23.98291016 C-17.3021141 20.68325647 -14.47247166 17.38591697 -11.63671875 14.09375 C-10.83186035 13.15813232 -10.83186035 13.15813232 -10.01074219 12.20361328 C-8.98245252 11.00841005 -7.95319592 9.81403786 -6.92285156 8.62060547 C-4.51193359 5.81611875 -2.17011296 2.99577884 0 0 Z " fill="#073429" transform="translate(556,368)"/>
<path d="M0 0 C0.33 0 0.66 0 1 0 C1.29487584 8.54266228 0.41252991 16.68756994 -0.875 25.125 C-1.04902344 26.35476563 -1.22304688 27.58453125 -1.40234375 28.8515625 C-1.57636719 30.016875 -1.75039063 31.1821875 -1.9296875 32.3828125 C-2.08679199 33.43871582 -2.24389648 34.49461914 -2.40576172 35.58251953 C-2.60186035 36.38028809 -2.79795898 37.17805664 -3 38 C-3.99 38.495 -3.99 38.495 -5 39 C-4.60680323 30.17341036 -3.75287749 21.49600511 -2.5 12.75 C-2.36940186 11.83323486 -2.23880371 10.91646973 -2.10424805 9.97192383 C-1.59358599 6.51112923 -1.109001 3.32700299 0 0 Z " fill="#072E28" transform="translate(712,379)"/>
<path d="M0 0 C2.67098172 2.67098172 3.705597 5.8159734 5.125 9.25 C8.07727902 16.2261671 11.52229581 22.704392 15.3984375 29.20703125 C17 32 17 32 18 35 C16.515 34.505 16.515 34.505 15 34 C15 33.34 15 32.68 15 32 C14.34 32 13.68 32 13 32 C7.140625 20.28125 7.140625 20.28125 6.07714844 18.14257812 C5.35325447 16.70266574 4.61667412 15.26906799 3.86816406 13.84179688 C1.37779473 9.0490106 0.38602904 5.40440662 0 0 Z " fill="#06332C" transform="translate(318,545)"/>
<path d="M0 0 C0.33 0.99 0.66 1.98 1 3 C-0.44521998 5.22341536 -1.89676935 7.20309063 -3.5625 9.25 C-4.02342041 9.83265625 -4.48434082 10.4153125 -4.95922852 11.015625 C-7.38736995 14.06751309 -9.87468967 17.05992318 -12.4375 20 C-14.64960452 22.5897809 -16.29377245 25.07503848 -18 28 C-19.6875 29.8125 -19.6875 29.8125 -21 31 C-21.66 30.67 -22.32 30.34 -23 30 C-22.62302979 29.51756836 -22.24605957 29.03513672 -21.85766602 28.53808594 C-14.48095846 19.09176778 -7.13697614 9.62925352 0 0 Z " fill="#05312A" transform="translate(414,685)"/>
<path d="M0 0 C0.66 0.33 1.32 0.66 2 1 C1.2265625 2.02738281 0.453125 3.05476562 -0.34375 4.11328125 C-6.29562062 12.02869504 -12.21137147 19.96402156 -18 28 C-18.58203125 26.140625 -18.58203125 26.140625 -19 24 C-17.6875 21.75 -17.6875 21.75 -16 20 C-15.34 20 -14.68 20 -14 20 C-13.8453125 19.13375 -13.8453125 19.13375 -13.6875 18.25 C-12.89103535 15.64338842 -11.80934723 14.0264689 -10 12 C-9.34 12 -8.68 12 -8 12 C-7.7525 11.484375 -7.505 10.96875 -7.25 10.4375 C-2.55172414 1.27586207 -2.55172414 1.27586207 0 0 Z " fill="#072D29" transform="translate(321,703)"/>
<path d="M0 0 C0.99 0.33 1.98 0.66 3 1 C2.10861328 1.91265625 2.10861328 1.91265625 1.19921875 2.84375 C-6.16027697 10.62673147 -12.1070668 19.07097383 -18 28 C-19.2077558 24.37673261 -18.54311128 23.35853631 -17 20 C-16.34 20 -15.68 20 -15 20 C-14.690625 19.38125 -14.38125 18.7625 -14.0625 18.125 C-13.375 16.75 -12.6875 15.375 -12 14 C-11.34 14 -10.68 14 -10 14 C-10 13.01 -10 12.02 -10 11 C-9.34 11 -8.68 11 -8 11 C-7.67 10.01 -7.34 9.02 -7 8 C-6.34 8 -5.68 8 -5 8 C-4.690625 7.38125 -4.38125 6.7625 -4.0625 6.125 C-3.375 4.75 -2.6875 3.375 -2 2 C-1.34 2 -0.68 2 0 2 C0 1.34 0 0.68 0 0 Z " fill="#053129" transform="translate(351,375)"/>
<path d="M0 0 C3.56764285 1.51376081 5.83706287 3.60513129 8.546875 6.3515625 C9.39121094 7.20234375 10.23554687 8.053125 11.10546875 8.9296875 C12.41451172 10.26386719 12.41451172 10.26386719 13.75 11.625 C14.63816406 12.5221875 15.52632812 13.419375 16.44140625 14.34375 C18.63216969 16.55807004 20.81812763 18.77692435 23 21 C19.45595664 21 18.89732095 20.39010515 16.3125 18.125 C15.68988281 17.59132813 15.06726563 17.05765625 14.42578125 16.5078125 C13 15 13 15 13 13 C12.34 13 11.68 13 11 13 C9.5625 11.50390625 9.5625 11.50390625 8 9.5625 C5.85474956 6.84811762 5.85474956 6.84811762 3 5 C3 4.34 3 3.68 3 3 C1.02 3.33 -0.96 3.66 -3 4 C-2.01 2.68 -1.02 1.36 0 0 Z " fill="#022F28" transform="translate(666,379)"/>
<path d="M0 0 C1 3 1 3 -0.1875 5.5625 C-2.07754997 8.10429134 -3.26397956 8.63198978 -6 10 C-6.67156616 11.93618425 -6.67156616 11.93618425 -7 14 C-7.99 15.485 -7.99 15.485 -9 17 C-9 17.66 -9 18.32 -9 19 C-10.32 19 -11.64 19 -13 19 C-11.44301719 14.09456622 -8.56676327 10.62049764 -5.375 6.6875 C-4.859375 6.04232422 -4.34375 5.39714844 -3.8125 4.73242188 C-2.54705818 3.1506196 -1.27425738 1.57470937 0 0 Z " fill="#22A498" transform="translate(311,719)"/>
<path d="M0 0 C-1.65 1.65 -3.3 3.3 -5 5 C-5 4.34 -5 3.68 -5 3 C-5.57975586 3.16298584 -6.15951172 3.32597168 -6.75683594 3.49389648 C-10.22673123 4.27677556 -13.712623 4.10312359 -17.25 4.0625 C-17.99507812 4.05798828 -18.74015625 4.05347656 -19.5078125 4.04882812 C-21.3385764 4.03709246 -23.16929873 4.0191585 -25 4 C-25 3.67 -25 3.34 -25 3 C-22.14694871 2.49279088 -19.29283186 1.99406366 -16.4375 1.5 C-15.63763672 1.35691406 -14.83777344 1.21382813 -14.01367188 1.06640625 C-9.26475402 0.25230605 -4.81753923 -0.15519589 0 0 Z " fill="#49D1BB" transform="translate(724,270)"/>
<path d="M0 0 C0.33 0 0.66 0 1 0 C1.18451025 16.8929385 1.18451025 16.8929385 0 24 C-0.66 24 -1.32 24 -2 24 C-2.19676277 15.70316995 -2.25943749 8.04924606 0 0 Z " fill="#082B26" transform="translate(719,319)"/>
<path d="M0 0 C0.99 0.33 1.98 0.66 3 1 C0.7757418 4.9374409 -1.79850633 8.3373337 -4.6875 11.8125 C-5.49574219 12.78832031 -6.30398438 13.76414062 -7.13671875 14.76953125 C-8.05904297 15.87361328 -8.05904297 15.87361328 -9 17 C-9.33 16.34 -9.66 15.68 -10 15 C-7.76456148 9.2716888 -3.83408701 4.72695658 0 0 Z " fill="#2FCCB2" transform="translate(465,520)"/>
<path d="M0 0 C0.33 0.66 0.66 1.32 1 2 C-1.00130626 5.90187563 -3.64346363 9.27074887 -6.375 12.6875 C-7.50035156 14.11642578 -7.50035156 14.11642578 -8.6484375 15.57421875 C-11.04677142 18.0482476 -12.73813929 19.01452618 -16 20 C-10.98338808 13.06647133 -5.51369211 6.53797484 0 0 Z " fill="#44CCB6" transform="translate(543,425)"/>
<path d="M0 0 C1 3 1 3 0.0625 5.1875 C-0.288125 5.785625 -0.63875 6.38375 -1 7 C-1.66 7 -2.32 7 -3 7 C-3.66 8.32 -4.32 9.64 -5 11 C-5.66 11 -6.32 11 -7 11 C-7.33 12.32 -7.66 13.64 -8 15 C-9.32 15.33 -10.64 15.66 -12 16 C-8.84732701 9.82601539 -4.71993196 5.05216018 0 0 Z " fill="#0B342C" transform="translate(397,417)"/>
<path d="M0 0 C0.55429687 0.23074219 1.10859375 0.46148437 1.6796875 0.69921875 C0.86177734 1.2096875 0.86177734 1.2096875 0.02734375 1.73046875 C-5.92718177 5.55765096 -11.14490948 9.87863059 -16.3203125 14.69921875 C-16.6503125 13.37921875 -16.9803125 12.05921875 -17.3203125 10.69921875 C-16.3303125 10.69921875 -15.3403125 10.69921875 -14.3203125 10.69921875 C-14.09085937 10.11785156 -13.86140625 9.53648437 -13.625 8.9375 C-11.97878876 6.11331125 -10.11021337 4.7648017 -7.4453125 2.88671875 C-6.14980469 1.94892578 -6.14980469 1.94892578 -4.828125 0.9921875 C-2.3203125 -0.30078125 -2.3203125 -0.30078125 0 0 Z " fill="#2AA795" transform="translate(415.3203125,402.30078125)"/>
<path d="M0 0 C4.03998823 2.93817326 7.06883811 6.32143813 10.28515625 10.09375 C12.32198498 12.35792407 14.53952006 14.21056004 17 16 C17.99 15.01 18.98 14.02 20 13 C19.67 14.32 19.34 15.64 19 17 C17.3125 17.8125 17.3125 17.8125 15 18 C12.5625 15.875 12.5625 15.875 10 13 C9.175 12.175 8.35 11.35 7.5 10.5 C6.675 9.675 5.85 8.85 5 8 C4.071875 7.13375 3.14375 6.2675 2.1875 5.375 C0 3 0 3 0 0 Z " fill="#052E29" transform="translate(345,592)"/>
<path d="M0 0 C0.66 0.33 1.32 0.66 2 1 C-0.10227323 3.43913867 -2.20714763 5.87601888 -4.3125 8.3125 C-4.90740234 9.00279297 -5.50230469 9.69308594 -6.11523438 10.40429688 C-6.69208984 11.07138672 -7.26894531 11.73847656 -7.86328125 12.42578125 C-8.39219971 13.03848877 -8.92111816 13.65119629 -9.46606445 14.2824707 C-10.92494918 15.91596649 -12.43536257 17.46817279 -14 19 C-14 15.38462395 -13.10770759 13.88834003 -11 11 C-10.01 11 -9.02 11 -8 11 C-7.938125 10.46375 -7.87625 9.9275 -7.8125 9.375 C-6.47660426 5.47007398 -3.73660299 1.8683015 0 0 Z " fill="#082F27" transform="translate(549,416)"/>
<path d="M0 0 C1 3 1 3 -0.0625 5.375 C-2 8 -2 8 -4.9375 10.4375 C-8.1742442 13.14579616 -9.843719 15.43384295 -12 19 C-12.99 18.67 -13.98 18.34 -15 18 C-14.50371094 17.45472656 -14.00742187 16.90945313 -13.49609375 16.34765625 C-8.7459724 11.07475115 -4.28137818 5.65944679 0 0 Z " fill="#073029" transform="translate(596,459)"/>
<path d="M0 0 C0.99 0.66 1.98 1.32 3 2 C1.26009069 3.98889633 -0.49085675 5.96573765 -2.25 7.9375 C-2.74113281 8.50146484 -3.23226562 9.06542969 -3.73828125 9.64648438 C-6.39017854 12.59893002 -8.09043262 14.29349578 -12 15 C-8.19695186 9.80789528 -4.23841458 4.84390238 0 0 Z " fill="#45D5BC" transform="translate(567,397)"/>
<path d="M0 0 C0.33 0.66 0.66 1.32 1 2 C-1.10657778 8.31973334 -6.03219114 11.89661072 -11 16 C-11.66 15.67 -12.32 15.34 -13 15 C-12.22914063 14.16855469 -11.45828125 13.33710938 -10.6640625 12.48046875 C-9.6509335 11.38291233 -8.63791863 10.28525056 -7.625 9.1875 C-7.11710938 8.64029297 -6.60921875 8.09308594 -6.0859375 7.52929688 C-3.84783697 5.09977985 -1.83620888 2.75431332 0 0 Z " fill="#0D2D28" transform="translate(654,392)"/>
<path d="M0 0 C0.99 0.33 1.98 0.66 3 1 C0.525 4.465 0.525 4.465 -2 8 C5.26 8 12.52 8 20 8 C20 8.33 20 8.66 20 9 C12.41 9 4.82 9 -3 9 C-2 2 -2 2 0 0 Z " fill="#042B24" transform="translate(299,731)"/>
<path d="M0 0 C0 4.20547571 -2.36738124 6.16710361 -5 9.1875 C-5.47695313 9.74630859 -5.95390625 10.30511719 -6.4453125 10.88085938 C-7.62366206 12.25952836 -8.81098952 13.63051472 -10 15 C-10.734375 13.2890625 -10.734375 13.2890625 -11 11 C-9.453125 8.7109375 -9.453125 8.7109375 -7.25 6.375 C-6.53328125 5.59898437 -5.8165625 4.82296875 -5.078125 4.0234375 C-3 2 -3 2 0 0 Z " fill="#38D6BC" transform="translate(502,477)"/>
<path d="M0 0 C5.66129431 4.69766975 10.85228904 9.74723372 16 15 C14.25 18.875 14.25 18.875 12 20 C12.12375 19.13890625 12.2475 18.2778125 12.375 17.390625 C11.84505008 12.59899448 9.47538337 10.86532113 6 7.75 C3.95930769 5.86557692 1.97110186 3.95936911 0 2 C0 1.34 0 0.68 0 0 Z " fill="#01352A" transform="translate(607,319)"/>
<path d="M0 0 C1.16144531 0.00902344 2.32289063 0.01804687 3.51953125 0.02734375 C4.39996094 0.03894531 5.28039062 0.05054688 6.1875 0.0625 C2.92941457 1.92203078 -0.05712525 2.60073806 -3.75 3.1875 C-4.76964844 3.35507812 -5.78929687 3.52265625 -6.83984375 3.6953125 C-9.53842382 4.02864565 -12.09788935 4.13248996 -14.8125 4.0625 C-10.92060376 -0.64874282 -5.72938397 -0.05787257 0 0 Z " fill="#4AE0C6" transform="translate(600.8125,290.9375)"/>
<path d="M0 0 C0.99 0.33 1.98 0.66 3 1 C2.40832031 1.71285156 1.81664062 2.42570312 1.20703125 3.16015625 C-3.05379915 8.32458853 -7.20133556 13.48580969 -11 19 C-11.33 18.01 -11.66 17.02 -12 16 C-10.48828125 13.73046875 -10.48828125 13.73046875 -8.3125 11.1875 C-5.28426289 7.56528293 -2.51893151 3.98830822 0 0 Z " fill="#05332A" transform="translate(484,493)"/>
<path d="M0 0 C0.99 0.33 1.98 0.66 3 1 C-6.41002278 11.55808656 -6.41002278 11.55808656 -11 16 C-10.12507654 10.3129975 -6.24466917 5.67871328 -2 2 C-1.34 2 -0.68 2 0 2 C0 1.34 0 0.68 0 0 Z " fill="#073027" transform="translate(589,369)"/>
<path d="M0 0 C-0.72445313 0.45890625 -1.44890625 0.9178125 -2.1953125 1.390625 C-7.16469814 4.54452842 -12.12303 7.70475 -17 11 C-17 10.01 -17 9.02 -17 8 C-15.03277992 6.61876037 -13.03131672 5.28511874 -11 4 C-10.67 3.34 -10.34 2.68 -10 2 C-8.68 2 -7.36 2 -6 2 C-6 1.34 -6 0.68 -6 0 C-3.50907189 -1.24546405 -2.58919267 -0.7767578 0 0 Z " fill="#093B30" transform="translate(386,351)"/>
<path d="M0 0 C0.66 0.33 1.32 0.66 2 1 C0.23161621 3.27277849 -1.5395861 5.54325964 -3.3125 7.8125 C-3.81201172 8.45509766 -4.31152344 9.09769531 -4.82617188 9.75976562 C-5.55610352 10.69272461 -5.55610352 10.69272461 -6.30078125 11.64453125 C-6.74591064 12.21534424 -7.19104004 12.78615723 -7.6496582 13.37426758 C-9.01546416 15.01861794 -10.46578334 16.5130506 -12 18 C-11.39085487 14.73672252 -10.28221323 12.73335616 -8.25 10.125 C-7.71632813 9.43664062 -7.18265625 8.74828125 -6.6328125 8.0390625 C-4.45961611 5.32516653 -2.25177419 2.64914611 0 0 Z " fill="#05342A" transform="translate(460,524)"/>
<path d="M0 0 C0 4.19442276 -2.27016737 6.3965339 -4.75 9.5625 C-5.41515625 10.44711914 -5.41515625 10.44711914 -6.09375 11.34960938 C-8.4314371 14.37141373 -10.34481162 16.69335555 -14 18 C-9.89742065 11.426549 -5.27877224 5.66731132 0 0 Z " fill="#043029" transform="translate(506,569)"/>
<path d="M0 0 C6.03331362 4.98404168 11.5184171 10.41915303 17 16 C16.34 16.33 15.68 16.66 15 17 C14.01 16.34 13.02 15.68 12 15 C12 14.34 12 13.68 12 13 C11.41605469 12.75121094 10.83210937 12.50242187 10.23046875 12.24609375 C7.68683716 10.82504563 6.20592302 9.26807085 4.3125 7.0625 C3.71050781 6.37285156 3.10851562 5.68320312 2.48828125 4.97265625 C1 3 1 3 0 0 Z " fill="#032C27" transform="translate(689,401)"/>
<path d="M0 0 C8.91469911 -0.23737365 17.25607982 0.20637535 26 2 C26 2.66 26 3.32 26 4 C17.32701485 3.05385617 8.66399563 2.02455976 0 1 C0 0.67 0 0.34 0 0 Z " fill="#073E33" transform="translate(475,328)"/>
<path d="M0 0 C0.77734375 1.671875 0.77734375 1.671875 1 4 C-0.87109375 6.578125 -0.87109375 6.578125 -3.4375 9.25 C-4.70400391 10.58804687 -4.70400391 10.58804687 -5.99609375 11.953125 C-6.65738281 12.62859375 -7.31867187 13.3040625 -8 14 C-8.67578125 12.234375 -8.67578125 12.234375 -9 10 C-7.85546875 8.078125 -7.85546875 8.078125 -6.1875 6.25 C-5.64480469 5.63640625 -5.10210938 5.0228125 -4.54296875 4.390625 C-3 3 -3 3 -1 3 C-0.67 2.01 -0.34 1.02 0 0 Z " fill="#1F978C" transform="translate(638,407)"/>
<path d="M0 0 C6.625 0.75 6.625 0.75 10 3 C10 3.66 10 4.32 10 5 C10.86625 5.185625 10.86625 5.185625 11.75 5.375 C14.02335767 6.00648824 15.9253529 6.88858191 18 8 C17.34 8.66 16.68 9.32 16 10 C10.72 7.03 5.44 4.06 0 1 C0 0.67 0 0.34 0 0 Z " fill="#073227" transform="translate(536,344)"/>
<path d="M0 0 C0.33 0 0.66 0 1 0 C1.4375 2.125 1.4375 2.125 1 5 C-0.6726711 6.75416021 -2.44763882 8.19526285 -4.37109375 9.66796875 C-6.13166095 10.92224334 -6.13166095 10.92224334 -7 13 C-7.66 13 -8.32 13 -9 13 C-7.51222697 9.74035658 -5.64333184 7.06830707 -3.4375 4.25 C-2.81746094 3.45078125 -2.19742187 2.6515625 -1.55859375 1.828125 C-0.78708984 0.92320312 -0.78708984 0.92320312 0 0 Z " fill="#26B4A2" transform="translate(370,642)"/>
<path d="M0 0 C0.66 0.33 1.32 0.66 2 1 C-2.95 7.435 -2.95 7.435 -8 14 C-8.66 13.34 -9.32 12.68 -10 12 C-8.625 9.5 -8.625 9.5 -7 7 C-6.34 7 -5.68 7 -5 7 C-4.731875 6.401875 -4.46375 5.80375 -4.1875 5.1875 C-3.01506533 3.02775192 -1.80630718 1.64209744 0 0 Z " fill="#07332A" transform="translate(441,548)"/>
<path d="M0 0 C0.33 0.99 0.66 1.98 1 3 C-0.36328125 4.90234375 -0.36328125 4.90234375 -2.3125 6.9375 C-4.25229233 8.97959375 -5.82402977 10.64096917 -7.06640625 13.17578125 C-8 15 -8 15 -10.625 16.25 C-11.40875 16.4975 -12.1925 16.745 -13 17 C-8.74093983 11.27445024 -4.39719064 5.62007798 0 0 Z " fill="#05312B" transform="translate(580,478)"/>
<path d="M0 0 C0.66 0.33 1.32 0.66 2 1 C0.58611621 2.75224914 -0.83122783 4.50170655 -2.25 6.25 C-3.03890625 7.22453125 -3.8278125 8.1990625 -4.640625 9.203125 C-6.66465805 11.60247544 -8.74122349 13.82411437 -11 16 C-11 12.06830895 -9.60580385 10.83572772 -7 8 C-6.34 8 -5.68 8 -5 8 C-5 7.01 -5 6.02 -5 5 C-4.34 5 -3.68 5 -3 5 C-2.690625 4.360625 -2.38125 3.72125 -2.0625 3.0625 C-1 1 -1 1 0 0 Z " fill="#06352C" transform="translate(498,477)"/>
<path d="M0 0 C0.99 0.33 1.98 0.66 3 1 C1.2088872 2.95884243 -0.58286532 4.91709286 -2.375 6.875 C-2.88289062 7.43058594 -3.39078125 7.98617188 -3.9140625 8.55859375 C-5.9116026 10.74011781 -7.90816093 12.90816093 -10 15 C-9.47470631 10.8911959 -8.33192009 8.74480159 -5.5625 5.6875 C-4.94503906 4.99011719 -4.32757812 4.29273438 -3.69140625 3.57421875 C-2 2 -2 2 0 2 C0 1.34 0 0.68 0 0 Z " fill="#083229" transform="translate(575,385)"/>
<path d="M0 0 C0.99 0.33 1.98 0.66 3 1 C0.03 4.63 -2.94 8.26 -6 12 C-6.33 10.68 -6.66 9.36 -7 8 C-5.56640625 5.859375 -5.56640625 5.859375 -3.5625 3.75 C-2.57443359 2.69039063 -2.57443359 2.69039063 -1.56640625 1.609375 C-1.04949219 1.07828125 -0.53257812 0.5471875 0 0 Z " fill="#1F9A8D" transform="translate(606,444)"/>
<path d="M0 0 C0.33 0.99 0.66 1.98 1 3 C-2.96 7.29 -6.92 11.58 -11 16 C-11.66 15.67 -12.32 15.34 -13 15 C-12.22914063 14.16855469 -11.45828125 13.33710938 -10.6640625 12.48046875 C-9.6509335 11.38291233 -8.63791863 10.28525056 -7.625 9.1875 C-7.11710938 8.64029297 -6.60921875 8.09308594 -6.0859375 7.52929688 C-3.84783697 5.09977985 -1.83620888 2.75431332 0 0 Z " fill="#05312B" transform="translate(634,415)"/>
<path d="M0 0 C0.66 0.33 1.32 0.66 2 1 C-1.96 9.91 -1.96 9.91 -6 19 C-7.09190473 14.63238108 -6.78771922 13.55601301 -5.25 9.5 C-4.73179687 8.09234375 -4.73179687 8.09234375 -4.203125 6.65625 C-3.05201278 4.11483341 -1.7638922 2.14911004 0 0 Z " fill="#053329" transform="translate(326,410)"/>
<path d="M0 0 C1.32 0.33 2.64 0.66 4 1 C0.37 4.96 -3.26 8.92 -7 13 C-7.33 12.01 -7.66 11.02 -8 10 C-6.85546875 8.17578125 -6.85546875 8.17578125 -5.1875 6.3125 C-4.64480469 5.68988281 -4.10210938 5.06726563 -3.54296875 4.42578125 C-2 3 -2 3 0 3 C0 2.01 0 1.02 0 0 Z " fill="#37BEA7" transform="translate(539,384)"/>
<path d="M0 0 C0.33 0.66 0.66 1.32 1 2 C-5.92567568 12.59628378 -5.92567568 12.59628378 -9 16 C-9.66 16 -10.32 16 -11 16 C-9.32076975 12.19866558 -6.88537166 9.02917298 -4.375 5.75 C-3.95476562 5.19570313 -3.53453125 4.64140625 -3.1015625 4.0703125 C-2.07061281 2.71133337 -1.03570089 1.35536165 0 0 Z " fill="#063730" transform="translate(381,583)"/>
<path d="M0 0 C0.33 0.99 0.66 1.98 1 3 C0.01196289 4.62573242 0.01196289 4.62573242 -1.52734375 6.35546875 C-2.07197266 6.97744141 -2.61660156 7.59941406 -3.17773438 8.24023438 C-3.75845703 8.88283203 -4.33917969 9.52542969 -4.9375 10.1875 C-5.51435547 10.84169922 -6.09121094 11.49589844 -6.68554688 12.16992188 C-8.11464362 13.78799009 -9.55618343 15.39505265 -11 17 C-11.66 16.67 -12.32 16.34 -13 16 C-11.84371094 14.64455078 -11.84371094 14.64455078 -10.6640625 13.26171875 C-9.65095837 12.07038333 -8.63794212 10.87897317 -7.625 9.6875 C-7.11710938 9.09259766 -6.60921875 8.49769531 -6.0859375 7.88476562 C-5.59609375 7.30791016 -5.10625 6.73105469 -4.6015625 6.13671875 C-4.15119629 5.60780029 -3.70083008 5.07888184 -3.23681641 4.53393555 C-2.07125727 3.08837533 -1.03003696 1.54505544 0 0 Z " fill="#04322B" transform="translate(552,512)"/>
<path d="M0 0 C1 3 1 3 -0.1875 5.4375 C-1.93979049 7.91487622 -3.78315483 9.9360407 -6 12 C-6.99 11.67 -7.98 11.34 -9 11 C-6.03 7.37 -3.06 3.74 0 0 Z " fill="#0B322C" transform="translate(620,431)"/>
<path d="M0 0 C1.94113934 0.92994117 3.8777951 1.8692453 5.8125 2.8125 C6.89144531 3.33457031 7.97039063 3.85664063 9.08203125 4.39453125 C11.56579702 5.76110117 13.1799378 6.87340101 15 9 C11.14974121 8.39644592 8.13898841 7.23227397 4.6875 5.4375 C3.80449219 4.98246094 2.92148437 4.52742188 2.01171875 4.05859375 C1.34785156 3.70925781 0.68398438 3.35992187 0 3 C0 2.01 0 1.02 0 0 Z " fill="#4DD7BC" transform="translate(537,345)"/>
<path d="M0 0 C0.33 0 0.66 0 1 0 C1.28545428 8.13544686 0.18396883 15.97649696 -1 24 C-1.33 24 -1.66 24 -2 24 C-2.3690205 7.1070615 -2.3690205 7.1070615 0 0 Z " fill="#229288" transform="translate(720,298)"/>
<path d="M0 0 C0.33 0.99 0.66 1.98 1 3 C-0.51171875 5.41015625 -0.51171875 5.41015625 -2.6875 8.0625 C-3.39261719 8.94035156 -4.09773438 9.81820312 -4.82421875 10.72265625 C-6.84391195 12.83662598 -8.31662731 13.92786238 -11 15 C-10.62488281 14.50371094 -10.24976563 14.00742187 -9.86328125 13.49609375 C-6.50836081 9.04258476 -3.22288764 4.54995902 0 0 Z " fill="#05312B" transform="translate(491,587)"/>
<path d="M0 0 C0.33 0.66 0.66 1.32 1 2 C-0.8478656 6.61966401 -3.25816318 9.73788585 -7 13 C-7.66 13 -8.32 13 -9 13 C-7.50923566 9.7173068 -5.61379679 7.06922559 -3.375 4.25 C-2.74335938 3.45078125 -2.11171875 2.6515625 -1.4609375 1.828125 C-0.97882813 1.22484375 -0.49671875 0.6215625 0 0 Z " fill="#2AB6A4" transform="translate(380,629)"/>
<path d="M0 0 C2.375 0.625 2.375 0.625 5 2 C6.3125 5.125 6.3125 5.125 7 8 C6.01 8.33 5.02 8.66 4 9 C2.79117904 11.00016466 2.79117904 11.00016466 2 13 C1.01 13 0.02 13 -1 13 C0.65 11.02 2.3 9.04 4 7 C2.79618552 4.50638429 1.54571278 2.31856917 0 0 Z " fill="#052A23" transform="translate(394,555)"/>
<path d="M0 0 C0.99 0.33 1.98 0.66 3 1 C0.69 5.29 -1.62 9.58 -4 14 C-4.33 14 -4.66 14 -5 14 C-4.25 6.375 -4.25 6.375 -2 3 C-1.34 3 -0.68 3 0 3 C0 2.01 0 1.02 0 0 Z " fill="#28A696" transform="translate(381,434)"/>
<path d="M0 0 C-2.50012684 2.08343904 -5.14195318 3.71433305 -8 5.25 C-8.66 5.60578125 -9.32 5.9615625 -10 6.328125 C-12.39841683 7.13384316 -13.64518377 6.81998065 -16 6 C-14.35 5.67 -12.7 5.34 -11 5 C-10.67 4.01 -10.34 3.02 -10 2 C-6.58442859 0.19733731 -3.83134499 -0.218934 0 0 Z " fill="#2FC1AA" transform="translate(430,395)"/>
<path d="M0 0 C0.33 0.66 0.66 1.32 1 2 C-0.24403138 5.73209414 -2.17243898 7.30708475 -5 10 C-5.598125 10.598125 -6.19625 11.19625 -6.8125 11.8125 C-7.204375 12.204375 -7.59625 12.59625 -8 13 C-8.66 12.67 -9.32 12.34 -10 12 C-6.7 8.04 -3.4 4.08 0 0 Z " fill="#05302A" transform="translate(523,548)"/>
<path d="M0 0 C0.66 0.33 1.32 0.66 2 1 C-0.97 4.63 -3.94 8.26 -7 12 C-7.33 11.01 -7.66 10.02 -8 9 C-7.34 9 -6.68 9 -6 9 C-6 7.68 -6 6.36 -6 5 C-4.21722256 2.98376361 -2.16873843 1.62655382 0 0 Z " fill="#08342A" transform="translate(527,442)"/>
<path d="M0 0 C0.33 0.99 0.66 1.98 1 3 C-0.14453125 5.04296875 -0.14453125 5.04296875 -1.8125 7.1875 C-2.62654297 8.26064453 -2.62654297 8.26064453 -3.45703125 9.35546875 C-4.22080078 10.16951172 -4.22080078 10.16951172 -5 11 C-5.66 11 -6.32 11 -7 11 C-7 11.66 -7 12.32 -7 13 C-7.66 12.67 -8.32 12.34 -9 12 C-6.03 8.04 -3.06 4.08 0 0 Z " fill="#05332D" transform="translate(384,724)"/>
<path d="M0 0 C0.33 0 0.66 0 1 0 C1.375 2.1875 1.375 2.1875 1 5 C-0.83961648 6.99022836 -2.79186148 8.38989899 -5 10 C-5.66 9.67 -6.32 9.34 -7 9 C-5.85793642 7.49712782 -4.71125043 5.99776716 -3.5625 4.5 C-2.92441406 3.6646875 -2.28632813 2.829375 -1.62890625 1.96875 C-0.82259766 0.99421875 -0.82259766 0.99421875 0 0 Z " fill="#0A332C" transform="translate(460,626)"/>
<path d="M0 0 C0.33 0.66 0.66 1.32 1 2 C-0.59025991 5.10100683 -2.2996944 7.76931277 -5 10 C-5.66 10 -6.32 10 -7 10 C-5.33248852 6.05860922 -2.77289351 3.2107188 0 0 Z " fill="#2CC7AF" transform="translate(416,583)"/>
<path d="M0 0 C0.93826619 3.06687009 1.01788333 5.45007796 0.625 8.625 C0.53476562 9.40101563 0.44453125 10.17703125 0.3515625 10.9765625 C0 13 0 13 -1 15 C-1.66 15 -2.32 15 -3 15 C-2.44854729 9.76119922 -1.57077907 5.02649303 0 0 Z " fill="#2FB39E" transform="translate(315,440)"/>
<path d="M0 0 C-7.0547046 4.07877462 -7.0547046 4.07877462 -11 3.75 C-11.66 3.5025 -12.32 3.255 -13 3 C-8.61857449 0.07904966 -5.13850792 -1.56485878 0 0 Z " fill="#49CCB5" transform="translate(429,334)"/>
<path d="M0 0 C0.66 0 1.32 0 2 0 C1.52354792 4.28806873 0.34097516 6.26647487 -3 9 C-3.66 9 -4.32 9 -5 9 C-3.7580393 5.56072421 -2.44259716 2.74792181 0 0 Z " fill="#20AE9B" transform="translate(394,562)"/>
<path d="M0 0 C0.99 0.33 1.98 0.66 3 1 C0.03 4.63 -2.94 8.26 -6 12 C-6.66 11.34 -7.32 10.68 -8 10 C-7.50628906 9.44570313 -7.01257813 8.89140625 -6.50390625 8.3203125 C-5.86324219 7.59585938 -5.22257812 6.87140625 -4.5625 6.125 C-3.92441406 5.40570312 -3.28632813 4.68640625 -2.62890625 3.9453125 C-0.94985535 2.09249509 -0.94985535 2.09249509 0 0 Z " fill="#043228" transform="translate(469,512)"/>
<path d="M0 0 C0.66 0.33 1.32 0.66 2 1 C-0.64 4.3 -3.28 7.6 -6 11 C-6.33 9.68 -6.66 8.36 -7 7 C-6.01 6.67 -5.02 6.34 -4 6 C-4 5.34 -4 4.68 -4 4 C-3.34 4 -2.68 4 -2 4 C-1.34 2.68 -0.68 1.36 0 0 Z " fill="#07342B" transform="translate(507,466)"/>
<path d="M0 0 C-7.71428571 6 -7.71428571 6 -11 6 C-10.67 5.01 -10.34 4.02 -10 3 C-9.34 3 -8.68 3 -8 3 C-8 2.34 -8 1.68 -8 1 C-4.93251126 -0.86240388 -3.40254489 -1.2151946 0 0 Z " fill="#083028" transform="translate(397,344)"/>
<path d="M0 0 C0.33 0 0.66 0 1 0 C1.3125 2.25 1.3125 2.25 1 5 C-1.5 7.3125 -1.5 7.3125 -4 9 C-4.66 8.67 -5.32 8.34 -6 8 C-5.02471263 6.66382648 -4.04466681 5.3311249 -3.0625 4 C-2.24458984 2.88625 -2.24458984 2.88625 -1.41015625 1.75 C-0.94480469 1.1725 -0.47945313 0.595 0 0 Z " fill="#0A3028" transform="translate(392,569)"/>
<path d="M0 0 C0.66 0.33 1.32 0.66 2 1 C-0.64 4.3 -3.28 7.6 -6 11 C-6.66 10.34 -7.32 9.68 -8 9 C-5.36 6.03 -2.72 3.06 0 0 Z " fill="#063328" transform="translate(517,454)"/>
<path d="M0 0 C-4.95 2.97 -4.95 2.97 -10 6 C-10.66 5.34 -11.32 4.68 -12 4 C-10.76055724 3.13058506 -9.50792941 2.27994543 -8.25 1.4375 C-7.55390625 0.96183594 -6.8578125 0.48617188 -6.140625 -0.00390625 C-4 -1 -4 -1 0 0 Z " fill="#2CB19E" transform="translate(417,403)"/>
<path d="M0 0 C4.54805635 -0.17835515 7.8794254 0.00214565 12 2 C11.67 2.99 11.34 3.98 11 5 C7.37 3.68 3.74 2.36 0 1 C0 0.67 0 0.34 0 0 Z " fill="#33B4A0" transform="translate(496,393)"/>
<path d="M0 0 C0.33 0.99 0.66 1.98 1 3 C-0.09445838 3.86657116 -1.20097781 4.71792724 -2.3125 5.5625 C-2.92738281 6.03816406 -3.54226563 6.51382812 -4.17578125 7.00390625 C-4.77777344 7.33261719 -5.37976563 7.66132813 -6 8 C-6.99 7.67 -7.98 7.34 -9 7 C-6.03 4.69 -3.06 2.38 0 0 Z " fill="#48D6BD" transform="translate(371,360)"/>
<path d="M0 0 C0.33 0.66 0.66 1.32 1 2 C-0.11678083 3.6721852 -1.24366352 5.33762803 -2.375 7 C-3.00148438 7.928125 -3.62796875 8.85625 -4.2734375 9.8125 C-4.84320313 10.534375 -5.41296875 11.25625 -6 12 C-6.66 12 -7.32 12 -8 12 C-6.59023295 8.96147295 -4.91129772 6.4060405 -2.875 3.75 C-2.06675781 2.69039062 -2.06675781 2.69039062 -1.2421875 1.609375 C-0.83226562 1.07828125 -0.42234375 0.5471875 0 0 Z " fill="#29A597" transform="translate(343,677)"/>
<path d="M0 0 C0.99 0.33 1.98 0.66 3 1 C0.03 3.64 -2.94 6.28 -6 9 C-6.33 8.01 -6.66 7.02 -7 6 C-5.90716423 4.96704564 -4.80029421 3.94892165 -3.6875 2.9375 C-3.07261719 2.36902344 -2.45773437 1.80054688 -1.82421875 1.21484375 C-0.92123047 0.61349609 -0.92123047 0.61349609 0 0 Z " fill="#053329" transform="translate(364,363)"/>
<path d="M0 0 C0.33 1.32 0.66 2.64 1 4 C-0.3125 5.75 -0.3125 5.75 -2 7 C-2.66 7 -3.32 7 -4 7 C-4 7.66 -4 8.32 -4 9 C-4.66 8.67 -5.32 8.34 -6 8 C-4.02 5.36 -2.04 2.72 0 0 Z " fill="#21A397" transform="translate(318,710)"/>
<path d="M0 0 C0.33 0.99 0.66 1.98 1 3 C-0.40445835 5.2636564 -2.1967913 7.0208685 -4 9 C-4.99 8.67 -5.98 8.34 -7 8 C-4.69 5.36 -2.38 2.72 0 0 Z " fill="#0C3F33" transform="translate(556,368)"/>
<path d="M0 0 C1.8125 0.1875 1.8125 0.1875 4 1 C5.75 3.5625 5.75 3.5625 7 6 C4 6 4 6 1.8125 4.125 C0 2 0 2 0 0 Z " fill="#56D0BB" transform="translate(583,293)"/>
<path d="M0 0 C0.33 0.99 0.66 1.98 1 3 C-0.9375 5.6875 -0.9375 5.6875 -3 8 C-3.99 7.67 -4.98 7.34 -6 7 C-6 6.34 -6 5.68 -6 5 C-5.01 4.67 -4.02 4.34 -3 4 C-1.31461399 2.00334686 -1.31461399 2.00334686 0 0 Z " fill="#0B322A" transform="translate(528,401)"/>
<path d="M0 0 C-1 3 -1 3 -2.8125 4.25 C-5.33943414 5.11637742 -6.52221994 4.88492145 -9 4 C-2.25 0 -2.25 0 0 0 Z " fill="#083A30" transform="translate(426,398)"/>
<path d="M0 0 C0.33 1.32 0.66 2.64 1 4 C-0.65 5.32 -2.3 6.64 -4 8 C-4.66 7.67 -5.32 7.34 -6 7 C-4.02 4.69 -2.04 2.38 0 0 Z " fill="#46CAB4" transform="translate(561,404)"/>
<path d="M0 0 C0.33 0.99 0.66 1.98 1 3 C-0.98 4.98 -2.96 6.96 -5 9 C-5.66 8.67 -6.32 8.34 -7 8 C-4.69 5.36 -2.38 2.72 0 0 Z " fill="#06372F" transform="translate(648,399)"/>
<path d="M0 0 C2.97 0.33 5.94 0.66 9 1 C8.67 1.99 8.34 2.98 8 4 C3.91927658 3.44855089 3.08669204 3.08669204 0 0 Z " fill="#39B6A1" transform="translate(517,402)"/>
<path d="M0 0 C-6.625 4 -6.625 4 -10 4 C-10 3.34 -10 2.68 -10 2 C-8.68 2 -7.36 2 -6 2 C-6 1.34 -6 0.68 -6 0 C-3.50907189 -1.24546405 -2.58919267 -0.7767578 0 0 Z " fill="#083229" transform="translate(386,351)"/>
<path d="M0 0 C2.97 0.33 5.94 0.66 9 1 C9 1.99 9 2.98 9 4 C6.03 3.01 3.06 2.02 0 1 C0 0.67 0 0.34 0 0 Z " fill="#0C3C33" transform="translate(522,338)"/>
<path d="M0 0 C0.33 0.99 0.66 1.98 1 3 C0.01 3.33 -0.98 3.66 -2 4 C-3.21869929 6.50447516 -3.21869929 6.50447516 -4 9 C-4.66 9 -5.32 9 -6 9 C-4.47291037 5.56404834 -2.40072955 2.88087546 0 0 Z " fill="#053830" transform="translate(436,657)"/>
<path d="M0 0 C4.875 4.625 4.875 4.625 6 8 C3.53199953 6.84826645 1.95216435 5.95216435 0 4 C0 2.68 0 1.36 0 0 Z " fill="#20A699" transform="translate(345,588)"/>
<path d="M0 0 C0.66 0 1.32 0 2 0 C3.85776765 3.13498292 4.20140476 5.37471432 4 9 C3.34 9 2.68 9 2 9 C1.34 6.03 0.68 3.06 0 0 Z " fill="#27AE9D" transform="translate(311,519)"/>
<path d="M0 0 C0.33 1.32 0.66 2.64 1 4 C-0.65 5.32 -2.3 6.64 -4 8 C-4.66 7.67 -5.32 7.34 -6 7 C-4.02 4.69 -2.04 2.38 0 0 Z " fill="#052B25" transform="translate(610,443)"/>
<path d="M0 0 C2.64 0.33 5.28 0.66 8 1 C4.86501708 2.85776765 2.62528568 3.20140476 -1 3 C-0.67 2.01 -0.34 1.02 0 0 Z " fill="#45DDC4" transform="translate(647,282)"/>
<path d="M0 0 C0.33 0.99 0.66 1.98 1 3 C-0.9375 5.6875 -0.9375 5.6875 -3 8 C-3.99 7.67 -4.98 7.34 -6 7 C-4.02 4.69 -2.04 2.38 0 0 Z " fill="#06342E" transform="translate(530,539)"/>
<path d="M0 0 C0.33 0.66 0.66 1.32 1 2 C0.0625 4.125 0.0625 4.125 -1 6 C-1.66 6 -2.32 6 -3 6 C-3 6.66 -3 7.32 -3 8 C-3.66 8 -4.32 8 -5 8 C-3.62845496 5.04590299 -2.01136276 2.55991624 0 0 Z " fill="#43CCB7" transform="translate(342,389)"/>
<path d="M0 0 C0 0.99 0 1.98 0 3 C-2.5 5.1875 -2.5 5.1875 -5 7 C-4.1875 4.0625 -4.1875 4.0625 -3 1 C-2.01 0.67 -1.02 0.34 0 0 Z " fill="#49E8CC" transform="translate(606,356)"/>
</svg>
